M48
; DRILL file {KiCad 5.99.0-unknown-r23941-4f651901} date Mon Nov 30 00:39:10 2020
; FORMAT={-:-/ absolute / inch / decimal}
; #@! TF.CreationDate,2020-11-30T00:39:10+01:00
; #@! TF.GenerationSoftware,Kicad,Pcbnew,5.99.0-unknown-r23941-4f651901
FMAT,2
INCH
T1C0.0079
T2C0.0236
%
G90
G05
T1
X0.0187Y0.399
X0.0315Y0.3803
X0.0421Y0.6965
X0.0457Y0.3937
X0.0512Y0.4793
X0.0551Y0.4189
X0.0606Y0.8583
X0.0668Y0.5914
X0.0697Y0.5358
X0.0701Y0.5728
X0.0701Y0.5543
X0.0827Y0.2504
X0.0878Y0.5969
X0.1102Y0.5976
X0.1102Y0.572
X0.1118Y0.5008
X0.113Y0.2909
X0.1161Y0.3388
X0.1272Y0.5193
X0.1614Y0.7244
X0.178Y0.372
X0.1831Y0.7681
X0.1835Y0.472
X0.1843Y0.1531
X0.2234Y0.3504
X0.2234Y0.2276
X0.2384Y0.3726
X0.2449Y0.4724
X0.2451Y0.3504
X0.2451Y0.2276
X0.2669Y0.722
X0.2677Y0.2327
X0.2811Y0.802
X0.2898Y0.1528
X0.3028Y0.4709
X0.313Y0.3732
X0.3535Y0.2913
X0.363Y0.7394
X0.365Y0.8679
X0.365Y0.8463
X0.3657Y0.3398
X0.377Y0.7561
X0.3862Y0.2472
X0.4017Y0.5119
X0.4073Y0.8146
X0.4122Y0.6827
X0.4134Y0.575
X0.4134Y0.5533
X0.424Y0.3846
X0.4289Y0.8146
X0.4799Y0.1028
X0.4854Y0.6307
X0.4886Y0.4201
X0.4972Y0.4846
X0.4976Y0.5661
X0.5118Y0.4089
X0.5335Y0.4089
X0.5398Y0.5252
X0.5508Y0.6476
X0.578Y0.4839
X0.5791Y0.5661
X0.6103Y0.6598
X0.6126Y0.4254
X0.6126Y0.4037
X0.6197Y0.2945
X0.6256Y0.6445
X0.6303Y0.5992
X0.6433Y0.5142
X0.6461Y0.8252
X0.676Y0.4587
X0.6789Y0.3074
X0.712Y0.5508
X0.7161Y0.8157
X0.7283Y0.6563
X0.7374Y0.509
X0.7394Y0.3606
X0.7457Y0.885
X0.75Y0.6563
X0.7516Y0.1598
X0.7608Y0.4835
X0.7608Y0.4618
X0.7608Y0.3759
X0.7839Y0.102
X0.7858Y0.7252
X0.7898Y0.8969
X0.8008Y0.837
X0.8181Y0.235
X0.8201Y0.6791
X0.8209Y0.8354
X0.8449Y0.0508
X0.8492Y0.2295
X0.865Y0.4252
X0.8681Y0.3067
X0.8685Y0.4764
X0.8723Y0.3314
X0.8728Y0.513
X0.8756Y0.7358
X0.8803Y0.2004
X0.8854Y0.5969
X0.8878Y0.3469
X0.8917Y0.0406
X0.9094Y0.3468
X0.9126Y0.8661
X0.9142Y0.0764
X0.9203Y0.4766
X0.9205Y0.6898
X0.9264Y0.9067
X0.9406Y0.2384
X0.9441Y0.5004
X0.9462Y0.3472
X0.9513Y0.6385
X0.9622Y0.2386
X0.9626Y0.4244
X0.9654Y0.4772
X0.9673Y0.5965
X0.9677Y0.3496
X1.0031Y0.5827
X1.0035Y0.1394
X1.0043Y0.3701
X1.0236Y0.6811
X1.0283Y0.8563
X1.0303Y0.0646
X1.0384Y0.3767
X1.0492Y0.0209
X1.0571Y0.1138
X1.0602Y0.2925
X1.0673Y0.6539
X1.0839Y0.7898
X1.0839Y0.7724
X1.0953Y0.2406
X1.1016Y0.0343
X1.1019Y0.0745
X1.1024Y0.6976
X1.1114Y0.8437
X1.126Y0.2445
X1.148Y0.3276
X1.1484Y0.6504
X1.1486Y0.5396
X1.1486Y0.4372
X1.15Y0.2399
X1.1543Y0.078
X1.1752Y0.3028
X1.1949Y0.498
X1.1949Y0.4472
X1.1949Y0.6006
X1.1949Y0.5494
X1.195Y0.3957
X1.1956Y0.3447
X1.2047Y0.4787
X1.2047Y0.3762
X1.2053Y0.5809
X1.8228Y0.4037
X1.8228Y0.3683
X1.8248Y0.4825
X1.8248Y0.4648
X0.2591Y0.663
X0.2591Y0.6394
X0.3063Y0.663
X0.3063Y0.6394
X0.3535Y0.663
X0.3535Y0.6394
T2
G00X0.0642Y0.3197
M15
G01X0.0642Y0.2803
M16
G05
G00X0.0642Y0.1185
M15
G01X0.0642Y0.0594
M16
G05
G00X0.4043Y0.3197
M15
G01X0.4043Y0.2803
M16
G05
G00X0.4043Y0.1185
M15
G01X0.4043Y0.0594
M16
G05
T0
M30
