G04 #@! TF.GenerationSoftware,KiCad,Pcbnew,5.99.0-unknown-r23941-4f651901*
G04 #@! TF.CreationDate,2020-11-30T00:39:04+01:00*
G04 #@! TF.ProjectId,sdrewire,73647265-7769-4726-952e-6b696361645f,rev?*
G04 #@! TF.SameCoordinates,PX70d1d60PY66b5f20*
G04 #@! TF.FileFunction,Copper,L1,Top*
G04 #@! TF.FilePolarity,Positive*
%FSLAX46Y46*%
G04 Gerber Fmt 4.6, Leading zero omitted, Abs format (unit mm)*
G04 Created by KiCad (PCBNEW 5.99.0-unknown-r23941-4f651901) date 2020-11-30 00:39:04*
%MOMM*%
%LPD*%
G01*
G04 APERTURE LIST*
G04 Aperture macros list*
%AMRoundRect*
0 Rectangle with rounded corners*
0 $1 Rounding radius*
0 $2 $3 $4 $5 $6 $7 $8 $9 X,Y pos of 4 corners*
0 Add a 4 corners polygon primitive as box body*
4,1,4,$2,$3,$4,$5,$6,$7,$8,$9,$2,$3,0*
0 Add four circle primitives for the rounded corners*
1,1,$1+$1,$2,$3,0*
1,1,$1+$1,$4,$5,0*
1,1,$1+$1,$6,$7,0*
1,1,$1+$1,$8,$9,0*
0 Add four rect primitives between the rounded corners*
20,1,$1+$1,$2,$3,$4,$5,0*
20,1,$1+$1,$4,$5,$6,$7,0*
20,1,$1+$1,$6,$7,$8,$9,0*
20,1,$1+$1,$8,$9,$2,$3,0*%
G04 Aperture macros list end*
G04 #@! TA.AperFunction,SMDPad,CuDef*
%ADD10RoundRect,0.135000X-0.135000X-0.185000X0.135000X-0.185000X0.135000X0.185000X-0.135000X0.185000X0*%
G04 #@! TD*
G04 #@! TA.AperFunction,SMDPad,CuDef*
%ADD11RoundRect,0.140000X0.170000X-0.140000X0.170000X0.140000X-0.170000X0.140000X-0.170000X-0.140000X0*%
G04 #@! TD*
G04 #@! TA.AperFunction,SMDPad,CuDef*
%ADD12RoundRect,0.150000X-0.150000X-0.625000X0.150000X-0.625000X0.150000X0.625000X-0.150000X0.625000X0*%
G04 #@! TD*
G04 #@! TA.AperFunction,SMDPad,CuDef*
%ADD13RoundRect,0.250000X-0.350000X-0.650000X0.350000X-0.650000X0.350000X0.650000X-0.350000X0.650000X0*%
G04 #@! TD*
G04 #@! TA.AperFunction,SMDPad,CuDef*
%ADD14RoundRect,0.062500X0.062500X-0.350000X0.062500X0.350000X-0.062500X0.350000X-0.062500X-0.350000X0*%
G04 #@! TD*
G04 #@! TA.AperFunction,SMDPad,CuDef*
%ADD15RoundRect,0.062500X0.350000X-0.062500X0.350000X0.062500X-0.350000X0.062500X-0.350000X-0.062500X0*%
G04 #@! TD*
G04 #@! TA.AperFunction,SMDPad,CuDef*
%ADD16R,2.600000X2.600000*%
G04 #@! TD*
G04 #@! TA.AperFunction,SMDPad,CuDef*
%ADD17RoundRect,0.140000X-0.170000X0.140000X-0.170000X-0.140000X0.170000X-0.140000X0.170000X0.140000X0*%
G04 #@! TD*
G04 #@! TA.AperFunction,SMDPad,CuDef*
%AMFp18*
4,1,18,0.050000,0.250000,0.069134,0.246194,0.085355,0.235355,0.096194,0.219134,0.100000,0.200000,0.099999,-0.200000,0.096193,-0.219134,0.085354,-0.235355,0.069133,-0.246194,0.049999,-0.250000,-0.050000,-0.250000,-0.069134,-0.246194,-0.085355,-0.235355,-0.096194,-0.219134,-0.100000,-0.200000,-0.099999,0.160000,-0.009999,0.250000,0.050000,0.250000,0.050000,0.250000,$1*%
%ADD18Fp18,180.000000*%
G04 #@! TD*
G04 #@! TA.AperFunction,SMDPad,CuDef*
%ADD19RoundRect,0.050000X0.050000X0.200000X-0.050000X0.200000X-0.050000X-0.200000X0.050000X-0.200000X0*%
G04 #@! TD*
G04 #@! TA.AperFunction,SMDPad,CuDef*
%AMFp20*
4,1,18,0.096193,-0.219134,0.085354,-0.235355,0.069133,-0.246194,0.049999,-0.250000,-0.050000,-0.250000,-0.069134,-0.246194,-0.085355,-0.235355,-0.096194,-0.219134,-0.100000,-0.200000,-0.099999,0.200000,-0.096193,0.219134,-0.085354,0.235355,-0.069133,0.246194,-0.049999,0.250000,0.010000,0.250000,0.100000,0.160000,0.099999,-0.200000,0.096193,-0.219134,0.096193,-0.219134,$1*%
%ADD20Fp20,180.000000*%
G04 #@! TD*
G04 #@! TA.AperFunction,SMDPad,CuDef*
%AMFp21*
4,1,18,0.050000,0.250000,0.069134,0.246194,0.085355,0.235354,0.096194,0.219133,0.100000,0.199999,0.099999,-0.200000,0.096193,-0.219134,0.085354,-0.235355,0.069133,-0.246194,0.049999,-0.250000,-0.050000,-0.250000,-0.069134,-0.246194,-0.085355,-0.235354,-0.096194,-0.219133,-0.100000,-0.199999,-0.099999,0.160000,-0.009999,0.250000,0.050000,0.250000,0.050000,0.250000,$1*%
%ADD21Fp21,270.000000*%
G04 #@! TD*
G04 #@! TA.AperFunction,SMDPad,CuDef*
%ADD22RoundRect,0.050000X-0.200000X0.050000X-0.200000X-0.050000X0.200000X-0.050000X0.200000X0.050000X0*%
G04 #@! TD*
G04 #@! TA.AperFunction,SMDPad,CuDef*
%AMFp23*
4,1,18,0.096193,-0.219134,0.085354,-0.235355,0.069133,-0.246194,0.049999,-0.250000,-0.050000,-0.250000,-0.069134,-0.246194,-0.085355,-0.235354,-0.096194,-0.219133,-0.100000,-0.199999,-0.099999,0.200000,-0.096193,0.219134,-0.085354,0.235355,-0.069133,0.246194,-0.049999,0.250000,0.010000,0.250000,0.100000,0.159999,0.099999,-0.200000,0.096193,-0.219134,0.096193,-0.219134,$1*%
%ADD23Fp23,270.000000*%
G04 #@! TD*
G04 #@! TA.AperFunction,SMDPad,CuDef*
%AMFp24*
4,1,18,0.050000,0.250000,0.069134,0.246194,0.085355,0.235355,0.096194,0.219134,0.100000,0.200000,0.100000,-0.200000,0.096194,-0.219134,0.085355,-0.235355,0.069134,-0.246194,0.050000,-0.250000,-0.050000,-0.250000,-0.069134,-0.246194,-0.085355,-0.235355,-0.096194,-0.219134,-0.100000,-0.200000,-0.100000,0.160000,-0.010000,0.250000,0.050000,0.250000,0.050000,0.250000,$1*%
%ADD24Fp24,0.000000*%
G04 #@! TD*
G04 #@! TA.AperFunction,SMDPad,CuDef*
%ADD25RoundRect,0.050000X-0.050000X-0.200000X0.050000X-0.200000X0.050000X0.200000X-0.050000X0.200000X0*%
G04 #@! TD*
G04 #@! TA.AperFunction,SMDPad,CuDef*
%AMFp26*
4,1,18,0.096194,-0.219134,0.085355,-0.235355,0.069134,-0.246194,0.050000,-0.250000,-0.050000,-0.250000,-0.069134,-0.246194,-0.085355,-0.235355,-0.096194,-0.219134,-0.100000,-0.200000,-0.100000,0.200000,-0.096194,0.219134,-0.085355,0.235355,-0.069134,0.246194,-0.050000,0.250000,0.010000,0.250000,0.100000,0.160000,0.100000,-0.200000,0.096194,-0.219134,0.096194,-0.219134,$1*%
%ADD26Fp26,0.000000*%
G04 #@! TD*
G04 #@! TA.AperFunction,SMDPad,CuDef*
%AMFp27*
4,1,18,0.050000,0.250000,0.069134,0.246194,0.085355,0.235355,0.096194,0.219134,0.100000,0.200000,0.099999,-0.200000,0.096193,-0.219134,0.085354,-0.235355,0.069133,-0.246194,0.049999,-0.250000,-0.050000,-0.250000,-0.069134,-0.246194,-0.085355,-0.235355,-0.096194,-0.219134,-0.100000,-0.200000,-0.099999,0.160000,-0.009999,0.250000,0.050000,0.250000,0.050000,0.250000,$1*%
%ADD27Fp27,90.000000*%
G04 #@! TD*
G04 #@! TA.AperFunction,SMDPad,CuDef*
%ADD28RoundRect,0.050000X0.200000X-0.050000X0.200000X0.050000X-0.200000X0.050000X-0.200000X-0.050000X0*%
G04 #@! TD*
G04 #@! TA.AperFunction,SMDPad,CuDef*
%AMFp29*
4,1,18,0.096193,-0.219134,0.085354,-0.235355,0.069133,-0.246194,0.049999,-0.250000,-0.050000,-0.250000,-0.069134,-0.246194,-0.085355,-0.235355,-0.096194,-0.219134,-0.100000,-0.200000,-0.099999,0.200000,-0.096193,0.219134,-0.085354,0.235355,-0.069133,0.246194,-0.049999,0.250000,0.010000,0.250000,0.100000,0.160000,0.099999,-0.200000,0.096193,-0.219134,0.096193,-0.219134,$1*%
%ADD29Fp29,90.000000*%
G04 #@! TD*
G04 #@! TA.AperFunction,ComponentPad*
%ADD30C,0.400000*%
G04 #@! TD*
G04 #@! TA.AperFunction,SMDPad,CuDef*
%ADD31RoundRect,0.120000X1.480000X-0.480000X1.480000X0.480000X-1.480000X0.480000X-1.480000X-0.480000X0*%
G04 #@! TD*
G04 #@! TA.AperFunction,SMDPad,CuDef*
%ADD32RoundRect,0.140000X0.140000X0.170000X-0.140000X0.170000X-0.140000X-0.170000X0.140000X-0.170000X0*%
G04 #@! TD*
G04 #@! TA.AperFunction,SMDPad,CuDef*
%ADD33R,0.700000X0.450000*%
G04 #@! TD*
G04 #@! TA.AperFunction,SMDPad,CuDef*
%ADD34RoundRect,0.140000X-0.140000X-0.170000X0.140000X-0.170000X0.140000X0.170000X-0.140000X0.170000X0*%
G04 #@! TD*
G04 #@! TA.AperFunction,SMDPad,CuDef*
%ADD35RoundRect,0.135000X0.135000X0.185000X-0.135000X0.185000X-0.135000X-0.185000X0.135000X-0.185000X0*%
G04 #@! TD*
G04 #@! TA.AperFunction,SMDPad,CuDef*
%ADD36RoundRect,0.135000X-0.185000X0.135000X-0.185000X-0.135000X0.185000X-0.135000X0.185000X0.135000X0*%
G04 #@! TD*
G04 #@! TA.AperFunction,SMDPad,CuDef*
%ADD37C,0.500000*%
G04 #@! TD*
G04 #@! TA.AperFunction,SMDPad,CuDef*
%ADD38R,0.600000X0.500000*%
G04 #@! TD*
G04 #@! TA.AperFunction,SMDPad,CuDef*
%ADD39R,0.700000X0.340000*%
G04 #@! TD*
G04 #@! TA.AperFunction,SMDPad,CuDef*
%ADD40RoundRect,0.135000X0.185000X-0.135000X0.185000X0.135000X-0.185000X0.135000X-0.185000X-0.135000X0*%
G04 #@! TD*
G04 #@! TA.AperFunction,SMDPad,CuDef*
%ADD41R,2.900000X0.800000*%
G04 #@! TD*
G04 #@! TA.AperFunction,SMDPad,CuDef*
%ADD42R,3.200000X0.800000*%
G04 #@! TD*
G04 #@! TA.AperFunction,SMDPad,CuDef*
%ADD43RoundRect,0.147500X-0.147500X-0.172500X0.147500X-0.172500X0.147500X0.172500X-0.147500X0.172500X0*%
G04 #@! TD*
G04 #@! TA.AperFunction,SMDPad,CuDef*
%ADD44R,0.500000X0.400000*%
G04 #@! TD*
G04 #@! TA.AperFunction,SMDPad,CuDef*
%ADD45R,0.500000X0.300000*%
G04 #@! TD*
G04 #@! TA.AperFunction,SMDPad,CuDef*
%ADD46RoundRect,0.062500X-0.062500X-0.087500X0.062500X-0.087500X0.062500X0.087500X-0.062500X0.087500X0*%
G04 #@! TD*
G04 #@! TA.AperFunction,SMDPad,CuDef*
%ADD47R,0.300000X0.940000*%
G04 #@! TD*
G04 #@! TA.AperFunction,SMDPad,CuDef*
%ADD48RoundRect,0.062500X-0.375000X-0.062500X0.375000X-0.062500X0.375000X0.062500X-0.375000X0.062500X0*%
G04 #@! TD*
G04 #@! TA.AperFunction,SMDPad,CuDef*
%ADD49RoundRect,0.062500X-0.062500X-0.375000X0.062500X-0.375000X0.062500X0.375000X-0.062500X0.375000X0*%
G04 #@! TD*
G04 #@! TA.AperFunction,SMDPad,CuDef*
%ADD50R,3.100000X3.100000*%
G04 #@! TD*
G04 #@! TA.AperFunction,SMDPad,CuDef*
%ADD51RoundRect,0.100000X0.130000X0.100000X-0.130000X0.100000X-0.130000X-0.100000X0.130000X-0.100000X0*%
G04 #@! TD*
G04 #@! TA.AperFunction,SMDPad,CuDef*
%ADD52C,0.350000*%
G04 #@! TD*
G04 #@! TA.AperFunction,SMDPad,CuDef*
%ADD53RoundRect,0.075000X0.350000X0.075000X-0.350000X0.075000X-0.350000X-0.075000X0.350000X-0.075000X0*%
G04 #@! TD*
G04 #@! TA.AperFunction,SMDPad,CuDef*
%ADD54RoundRect,0.075000X0.075000X0.350000X-0.075000X0.350000X-0.075000X-0.350000X0.075000X-0.350000X0*%
G04 #@! TD*
G04 #@! TA.AperFunction,SMDPad,CuDef*
%ADD55R,2.100000X2.100000*%
G04 #@! TD*
G04 #@! TA.AperFunction,SMDPad,CuDef*
%ADD56R,0.450000X0.500000*%
G04 #@! TD*
G04 #@! TA.AperFunction,SMDPad,CuDef*
%ADD57R,0.300000X0.500000*%
G04 #@! TD*
G04 #@! TA.AperFunction,SMDPad,CuDef*
%ADD58O,0.200000X0.700000*%
G04 #@! TD*
G04 #@! TA.AperFunction,SMDPad,CuDef*
%ADD59O,0.200000X0.600000*%
G04 #@! TD*
G04 #@! TA.AperFunction,SMDPad,CuDef*
%ADD60O,0.600000X0.200000*%
G04 #@! TD*
G04 #@! TA.AperFunction,SMDPad,CuDef*
%ADD61RoundRect,0.200000X0.275000X-0.200000X0.275000X0.200000X-0.275000X0.200000X-0.275000X-0.200000X0*%
G04 #@! TD*
G04 #@! TA.AperFunction,SMDPad,CuDef*
%ADD62R,0.500000X0.600000*%
G04 #@! TD*
G04 #@! TA.AperFunction,SMDPad,CuDef*
%ADD63RoundRect,0.075000X-0.075000X-0.275000X0.075000X-0.275000X0.075000X0.275000X-0.075000X0.275000X0*%
G04 #@! TD*
G04 #@! TA.AperFunction,SMDPad,CuDef*
%ADD64RoundRect,0.175000X-0.325000X-0.175000X0.325000X-0.175000X0.325000X0.175000X-0.325000X0.175000X0*%
G04 #@! TD*
G04 #@! TA.AperFunction,ComponentPad*
%ADD65O,1.100000X2.600000*%
G04 #@! TD*
G04 #@! TA.AperFunction,ComponentPad*
%ADD66O,1.100000X2.100000*%
G04 #@! TD*
G04 #@! TA.AperFunction,SMDPad,CuDef*
%ADD67R,0.450000X0.300000*%
G04 #@! TD*
G04 #@! TA.AperFunction,SMDPad,CuDef*
%ADD68R,0.300000X0.750000*%
G04 #@! TD*
G04 #@! TA.AperFunction,SMDPad,CuDef*
%ADD69R,1.450000X1.750000*%
G04 #@! TD*
G04 #@! TA.AperFunction,SMDPad,CuDef*
%ADD70R,0.650000X0.400000*%
G04 #@! TD*
G04 #@! TA.AperFunction,SMDPad,CuDef*
%ADD71R,0.400000X0.500000*%
G04 #@! TD*
G04 #@! TA.AperFunction,ViaPad*
%ADD72C,0.450000*%
G04 #@! TD*
G04 #@! TA.AperFunction,Conductor*
%ADD73C,0.250000*%
G04 #@! TD*
G04 #@! TA.AperFunction,Conductor*
%ADD74C,0.200000*%
G04 #@! TD*
G04 #@! TA.AperFunction,Conductor*
%ADD75C,0.500000*%
G04 #@! TD*
G04 #@! TA.AperFunction,Conductor*
%ADD76C,0.400000*%
G04 #@! TD*
G04 #@! TA.AperFunction,Conductor*
%ADD77C,0.120000*%
G04 #@! TD*
G04 #@! TA.AperFunction,Conductor*
%ADD78C,0.100000*%
G04 #@! TD*
G04 #@! TA.AperFunction,Conductor*
%ADD79C,0.150000*%
G04 #@! TD*
G04 APERTURE END LIST*
D10*
G04 #@! TO.P,R11,1*
G04 #@! TO.N,/SD/SD_V_{DD}*
X17090000Y21860000D03*
G04 #@! TO.P,R11,2*
G04 #@! TO.N,/SD/SD_{MUX}_V_{DD}*
X18110000Y21860000D03*
G04 #@! TD*
D11*
G04 #@! TO.P,C40,1*
G04 #@! TO.N,+3V3*
X21730000Y21830000D03*
G04 #@! TO.P,C40,2*
G04 #@! TO.N,GND*
X21730000Y22790000D03*
G04 #@! TD*
D12*
G04 #@! TO.P,J2,1,Pin_1*
G04 #@! TO.N,/FTDI/FTDI_EXT_V_{DD}*
X14100000Y5120000D03*
G04 #@! TO.P,J2,2,Pin_2*
G04 #@! TO.N,/FTDI/FT_EXT_CBUS1_R*
X15100000Y5120000D03*
G04 #@! TO.P,J2,3,Pin_3*
G04 #@! TO.N,/FTDI/FT_EXT_CBUS0_R*
X16100000Y5120000D03*
G04 #@! TO.P,J2,4,Pin_4*
G04 #@! TO.N,/FTDI/FT_EXT_TXD_R*
X17100000Y5120000D03*
G04 #@! TO.P,J2,5,Pin_5*
G04 #@! TO.N,/FTDI/FT_EXT_RXD_R*
X18100000Y5120000D03*
G04 #@! TO.P,J2,6,Pin_6*
G04 #@! TO.N,GND*
X19100000Y5120000D03*
D13*
G04 #@! TO.P,J2,MP*
G04 #@! TO.N,N/C*
X12800000Y1245000D03*
X20400000Y1245000D03*
G04 #@! TD*
D14*
G04 #@! TO.P,U4,1,V_{DD33}*
G04 #@! TO.N,+3V3*
X12420000Y11392500D03*
G04 #@! TO.P,U4,2,USBDM_DN1*
G04 #@! TO.N,/FTDI_USB2_D-*
X12920000Y11392500D03*
G04 #@! TO.P,U4,3,USBDP_DN1*
G04 #@! TO.N,/FTDI_USB2_D+*
X13420000Y11392500D03*
G04 #@! TO.P,U4,4,USBDM_DN2*
G04 #@! TO.N,/GL_USB2_D-*
X13920000Y11392500D03*
G04 #@! TO.P,U4,5,USBDP_DN2*
G04 #@! TO.N,/GL_USB2_D+*
X14420000Y11392500D03*
G04 #@! TO.P,U4,6*
G04 #@! TO.N,N/C*
X14920000Y11392500D03*
D15*
G04 #@! TO.P,U4,7*
X15607500Y12080000D03*
G04 #@! TO.P,U4,8*
X15607500Y12580000D03*
G04 #@! TO.P,U4,9,V_{DD33}*
G04 #@! TO.N,+3V3*
X15607500Y13080000D03*
G04 #@! TO.P,U4,10,CRFILT*
G04 #@! TO.N,Net-(C16-Pad2)*
X15607500Y13580000D03*
G04 #@! TO.P,U4,11*
G04 #@! TO.N,N/C*
X15607500Y14080000D03*
G04 #@! TO.P,U4,12*
X15607500Y14580000D03*
D14*
G04 #@! TO.P,U4,13,SMBDATA*
G04 #@! TO.N,Net-(R4-Pad2)*
X14920000Y15267500D03*
G04 #@! TO.P,U4,14,SMBCLK*
G04 #@! TO.N,Net-(R5-Pad2)*
X14420000Y15267500D03*
G04 #@! TO.P,U4,15,~RESET*
G04 #@! TO.N,GND*
X13920000Y15267500D03*
G04 #@! TO.P,U4,16,V_{BUS}_DET*
G04 #@! TO.N,Net-(R1-Pad1)*
X13420000Y15267500D03*
G04 #@! TO.P,U4,17,SUSP_IND*
G04 #@! TO.N,Net-(R8-Pad2)*
X12920000Y15267500D03*
G04 #@! TO.P,U4,18,V_{DD33}*
G04 #@! TO.N,+3V3*
X12420000Y15267500D03*
D15*
G04 #@! TO.P,U4,19,USBDM_UP*
G04 #@! TO.N,/UFP_USB2_D-*
X11732500Y14580000D03*
G04 #@! TO.P,U4,20,USBDP_UP*
G04 #@! TO.N,/UFP_USB2_D+*
X11732500Y14080000D03*
G04 #@! TO.P,U4,21,XTALOUT*
G04 #@! TO.N,Net-(C4-Pad2)*
X11732500Y13580000D03*
G04 #@! TO.P,U4,22,XTALIN*
G04 #@! TO.N,Net-(C15-Pad2)*
X11732500Y13080000D03*
G04 #@! TO.P,U4,23*
G04 #@! TO.N,N/C*
X11732500Y12580000D03*
G04 #@! TO.P,U4,24,RBIAS*
G04 #@! TO.N,Net-(R3-Pad2)*
X11732500Y12080000D03*
D16*
G04 #@! TO.P,U4,25,V_{SS}*
G04 #@! TO.N,GND*
X13670000Y13330000D03*
G04 #@! TD*
D17*
G04 #@! TO.P,C51,1*
G04 #@! TO.N,GND*
X22450000Y17240000D03*
G04 #@! TO.P,C51,2*
G04 #@! TO.N,Net-(C47-Pad2)*
X22450000Y16280000D03*
G04 #@! TD*
D11*
G04 #@! TO.P,C6,1*
G04 #@! TO.N,/USB-C/CTX2+*
X8010000Y12700000D03*
G04 #@! TO.P,C6,2*
G04 #@! TO.N,/USB-C/C_CTX2-*
X8010000Y13660000D03*
G04 #@! TD*
D17*
G04 #@! TO.P,C38,1*
G04 #@! TO.N,GND*
X20570000Y7790000D03*
G04 #@! TO.P,C38,2*
G04 #@! TO.N,+5V*
X20570000Y6830000D03*
G04 #@! TD*
D18*
G04 #@! TO.P,U2,1,CC2*
G04 #@! TO.N,/USB-C/CC2*
X9580000Y17740000D03*
D19*
G04 #@! TO.P,U2,2,CC1*
G04 #@! TO.N,/USB-C/CC1*
X9180000Y17740000D03*
G04 #@! TO.P,U2,3*
G04 #@! TO.N,N/C*
X8780000Y17740000D03*
G04 #@! TO.P,U2,4,PORT*
G04 #@! TO.N,GND*
X8380000Y17740000D03*
G04 #@! TO.P,U2,5,V_{BUS}_DET*
G04 #@! TO.N,Net-(R6-Pad2)*
X7980000Y17740000D03*
G04 #@! TO.P,U2,6,TXp*
G04 #@! TO.N,/USB-C/C_USB3_TX-*
X7580000Y17740000D03*
G04 #@! TO.P,U2,7,TXn*
G04 #@! TO.N,/USB-C/C_USB3_TX+*
X7180000Y17740000D03*
G04 #@! TO.P,U2,8,V_{CC33}*
G04 #@! TO.N,+3V3*
X6780000Y17740000D03*
G04 #@! TO.P,U2,9,RXp*
G04 #@! TO.N,/USB-C/C_USB3_RX+*
X6380000Y17740000D03*
D20*
G04 #@! TO.P,U2,10,RXn*
G04 #@! TO.N,/USB-C/C_USB3_RX-*
X5980000Y17740000D03*
D21*
G04 #@! TO.P,U2,11,DIR*
G04 #@! TO.N,Net-(R7-Pad2)*
X5580000Y17340000D03*
D22*
G04 #@! TO.P,U2,12,~EN_MUX*
G04 #@! TO.N,GND*
X5580000Y16940000D03*
G04 #@! TO.P,U2,13,GND*
X5580000Y16540000D03*
G04 #@! TO.P,U2,14,RX1n*
G04 #@! TO.N,/USB-C/CRX1-*
X5580000Y16140000D03*
D23*
G04 #@! TO.P,U2,15,RX1p*
G04 #@! TO.N,/USB-C/CRX1+*
X5580000Y15740000D03*
D24*
G04 #@! TO.P,U2,16,TX1n*
G04 #@! TO.N,/USB-C/C_CTX1-*
X5980000Y15340000D03*
D25*
G04 #@! TO.P,U2,17,TX1p*
G04 #@! TO.N,/USB-C/C_CTX1+*
X6380000Y15340000D03*
G04 #@! TO.P,U2,18,RX2n*
G04 #@! TO.N,/USB-C/CRX2-*
X6780000Y15340000D03*
G04 #@! TO.P,U2,19,RX2p*
G04 #@! TO.N,/USB-C/CRX2+*
X7180000Y15340000D03*
G04 #@! TO.P,U2,20,TX2n*
G04 #@! TO.N,/USB-C/C_CTX2-*
X7580000Y15340000D03*
G04 #@! TO.P,U2,21,TX2p*
G04 #@! TO.N,/USB-C/C_CTX2+*
X7980000Y15340000D03*
G04 #@! TO.P,U2,22*
G04 #@! TO.N,N/C*
X8380000Y15340000D03*
G04 #@! TO.P,U2,23*
X8780000Y15340000D03*
G04 #@! TO.P,U2,24*
X9180000Y15340000D03*
D26*
G04 #@! TO.P,U2,25*
X9580000Y15340000D03*
D27*
G04 #@! TO.P,U2,26*
X9980000Y15740000D03*
D28*
G04 #@! TO.P,U2,27*
X9980000Y16140000D03*
G04 #@! TO.P,U2,28,GND*
G04 #@! TO.N,GND*
X9980000Y16540000D03*
G04 #@! TO.P,U2,29,~EN_CC*
X9980000Y16940000D03*
D29*
G04 #@! TO.P,U2,30,V_{DD5}*
G04 #@! TO.N,+5V*
X9980000Y17340000D03*
D30*
G04 #@! TO.P,U2,31,EPAD*
G04 #@! TO.N,GND*
X8980000Y16840000D03*
X6580000Y16840000D03*
X8980000Y16240000D03*
X7780000Y16240000D03*
X7780000Y16840000D03*
D31*
X7780000Y16540000D03*
D30*
X6580000Y16240000D03*
G04 #@! TD*
D32*
G04 #@! TO.P,C42,1*
G04 #@! TO.N,/SD/SD_{MUX}_V_{DD}*
X19920000Y21850000D03*
G04 #@! TO.P,C42,2*
G04 #@! TO.N,GND*
X18960000Y21850000D03*
G04 #@! TD*
D10*
G04 #@! TO.P,R10,1*
G04 #@! TO.N,/SD/~SD_MUX_SEL*
X29190000Y17170000D03*
G04 #@! TO.P,R10,2*
G04 #@! TO.N,Net-(Q1-Pad4)*
X30210000Y17170000D03*
G04 #@! TD*
D33*
G04 #@! TO.P,Q2,1,G*
G04 #@! TO.N,Net-(Q2-Pad1)*
X20190000Y19440000D03*
G04 #@! TO.P,Q2,2,S*
G04 #@! TO.N,/SD/SD_{MUX}_V_{DD}*
X20190000Y20740000D03*
G04 #@! TO.P,Q2,3,D*
G04 #@! TO.N,/SD/SD_V_{DD}*
X18190000Y20090000D03*
G04 #@! TD*
D11*
G04 #@! TO.P,C8,1*
G04 #@! TO.N,/USB-C/CTX1-*
X5950455Y12669654D03*
G04 #@! TO.P,C8,2*
G04 #@! TO.N,/USB-C/C_CTX1+*
X5950455Y13629654D03*
G04 #@! TD*
D34*
G04 #@! TO.P,C10,1*
G04 #@! TO.N,GND*
X1840000Y16740000D03*
G04 #@! TO.P,C10,2*
G04 #@! TO.N,+3V3*
X2800000Y16740000D03*
G04 #@! TD*
D35*
G04 #@! TO.P,R1,1*
G04 #@! TO.N,Net-(R1-Pad1)*
X13210000Y18260000D03*
G04 #@! TO.P,R1,2*
G04 #@! TO.N,+5V*
X12190000Y18260000D03*
G04 #@! TD*
D36*
G04 #@! TO.P,R6,1*
G04 #@! TO.N,+5V*
X8560000Y19730000D03*
G04 #@! TO.P,R6,2*
G04 #@! TO.N,Net-(R6-Pad2)*
X8560000Y18710000D03*
G04 #@! TD*
D37*
G04 #@! TO.P,FID2,*
G04 #@! TO.N,*
X1000000Y22605000D03*
G04 #@! TD*
D38*
G04 #@! TO.P,Y2,1,1*
G04 #@! TO.N,Net-(C20-Pad2)*
X17670000Y10400000D03*
G04 #@! TO.P,Y2,2,2*
G04 #@! TO.N,GND*
X18770000Y10400000D03*
G04 #@! TO.P,Y2,3,3*
G04 #@! TO.N,Net-(C19-Pad2)*
X18770000Y11200000D03*
G04 #@! TO.P,Y2,4,4*
G04 #@! TO.N,GND*
X17670000Y11200000D03*
G04 #@! TD*
D10*
G04 #@! TO.P,R24,1*
G04 #@! TO.N,Net-(R24-Pad1)*
X24550000Y18120000D03*
G04 #@! TO.P,R24,2*
G04 #@! TO.N,/SD/~SD_MUX_SEL*
X25570000Y18120000D03*
G04 #@! TD*
D39*
G04 #@! TO.P,Q1,1,S*
G04 #@! TO.N,/SD/SD_{MUX}_V_{DD}*
X27550000Y19230000D03*
G04 #@! TO.P,Q1,2,G*
G04 #@! TO.N,/SD/~SD_MUX_SEL*
X27550000Y18730000D03*
G04 #@! TO.P,Q1,3,D*
G04 #@! TO.N,/SD/GL_V_{DD}*
X27550000Y18230000D03*
G04 #@! TO.P,Q1,4,S*
G04 #@! TO.N,Net-(Q1-Pad4)*
X29050000Y18230000D03*
G04 #@! TO.P,Q1,5,G*
G04 #@! TO.N,/SD/~SD_MUX_SEL*
X29050000Y18730000D03*
G04 #@! TO.P,Q1,6,D*
G04 #@! TO.N,Net-(Q1-Pad4)*
X29050000Y19230000D03*
G04 #@! TD*
D10*
G04 #@! TO.P,R9,1*
G04 #@! TO.N,Net-(Q3-Pad2)*
X25020000Y22740000D03*
G04 #@! TO.P,R9,2*
G04 #@! TO.N,Net-(Q3-Pad4)*
X26040000Y22740000D03*
G04 #@! TD*
D17*
G04 #@! TO.P,C37,1*
G04 #@! TO.N,GND*
X22420000Y7230000D03*
G04 #@! TO.P,C37,2*
G04 #@! TO.N,/FTDI/FTDI_V_{DD}*
X22420000Y6270000D03*
G04 #@! TD*
D11*
G04 #@! TO.P,C44,1*
G04 #@! TO.N,Net-(C44-Pad1)*
X25510000Y20880000D03*
G04 #@! TO.P,C44,2*
G04 #@! TO.N,GND*
X25510000Y21840000D03*
G04 #@! TD*
D40*
G04 #@! TO.P,R3,1*
G04 #@! TO.N,GND*
X11650000Y9300000D03*
G04 #@! TO.P,R3,2*
G04 #@! TO.N,Net-(R3-Pad2)*
X11650000Y10320000D03*
G04 #@! TD*
D41*
G04 #@! TO.P,J4,1,Pin_1*
G04 #@! TO.N,/SD/EXT_DAT2*
X48050000Y15305000D03*
G04 #@! TO.P,J4,2,Pin_2*
G04 #@! TO.N,/SD/EXT_DAT3*
X48050000Y14205000D03*
G04 #@! TO.P,J4,3,Pin_3*
G04 #@! TO.N,/SD/EXT_CMD*
X48050000Y13105000D03*
D42*
G04 #@! TO.P,J4,4,Pin_4*
G04 #@! TO.N,/SD/EXT_V_{DD}*
X48200000Y12005000D03*
D41*
G04 #@! TO.P,J4,5,Pin_5*
G04 #@! TO.N,/SD/EXT_CLK*
X48050000Y10905000D03*
D42*
G04 #@! TO.P,J4,6,Pin_6*
G04 #@! TO.N,GND*
X48200000Y9805000D03*
D41*
G04 #@! TO.P,J4,7,Pin_7*
G04 #@! TO.N,/SD/EXT_DAT0*
X48050000Y8705000D03*
G04 #@! TO.P,J4,8,Pin_8*
G04 #@! TO.N,/SD/EXT_DAT1*
X48050000Y7605000D03*
G04 #@! TD*
D11*
G04 #@! TO.P,C9,1*
G04 #@! TO.N,/USB-C/CTX2-*
X8930000Y12700000D03*
G04 #@! TO.P,C9,2*
G04 #@! TO.N,/USB-C/C_CTX2+*
X8930000Y13660000D03*
G04 #@! TD*
D43*
G04 #@! TO.P,D1,1,K*
G04 #@! TO.N,GND*
X1040000Y21270000D03*
G04 #@! TO.P,D1,2,A*
G04 #@! TO.N,Net-(D1-Pad2)*
X2010000Y21270000D03*
G04 #@! TD*
D17*
G04 #@! TO.P,C50,1*
G04 #@! TO.N,GND*
X21530000Y17240000D03*
G04 #@! TO.P,C50,2*
G04 #@! TO.N,Net-(C47-Pad2)*
X21530000Y16280000D03*
G04 #@! TD*
D34*
G04 #@! TO.P,C7,1*
G04 #@! TO.N,GND*
X1840000Y15820000D03*
G04 #@! TO.P,C7,2*
G04 #@! TO.N,+3V3*
X2800000Y15820000D03*
G04 #@! TD*
G04 #@! TO.P,C57,1*
G04 #@! TO.N,+3V3*
X28120000Y6730000D03*
G04 #@! TO.P,C57,2*
G04 #@! TO.N,GND*
X29080000Y6730000D03*
G04 #@! TD*
D11*
G04 #@! TO.P,C55,1*
G04 #@! TO.N,/SD/GL_V_{DD}*
X24630000Y15720000D03*
G04 #@! TO.P,C55,2*
G04 #@! TO.N,GND*
X24630000Y16680000D03*
G04 #@! TD*
D44*
G04 #@! TO.P,RN1,1,R1.1*
G04 #@! TO.N,Net-(D1-Pad2)*
X3025000Y20530000D03*
D45*
G04 #@! TO.P,RN1,2,R2.1*
G04 #@! TO.N,Net-(D2-Pad2)*
X3025000Y20030000D03*
G04 #@! TO.P,RN1,3,R3.1*
G04 #@! TO.N,Net-(D4-Pad2)*
X3025000Y19530000D03*
D44*
G04 #@! TO.P,RN1,4,R4.1*
G04 #@! TO.N,Net-(D3-Pad2)*
X3025000Y19030000D03*
G04 #@! TO.P,RN1,5,R4.2*
G04 #@! TO.N,+3V3*
X4025000Y19030000D03*
D45*
G04 #@! TO.P,RN1,6,R3.2*
G04 #@! TO.N,/SD/~SD_MUX_SEL*
X4025000Y19530000D03*
G04 #@! TO.P,RN1,7,R2.2*
G04 #@! TO.N,Net-(RN1-Pad7)*
X4025000Y20030000D03*
D44*
G04 #@! TO.P,RN1,8,R1.2*
G04 #@! TO.N,+3V3*
X4025000Y20530000D03*
G04 #@! TD*
D32*
G04 #@! TO.P,C46,1*
G04 #@! TO.N,/SD/SD_{MUX}_V_{DD}*
X28380000Y17160000D03*
G04 #@! TO.P,C46,2*
G04 #@! TO.N,GND*
X27420000Y17160000D03*
G04 #@! TD*
D46*
G04 #@! TO.P,U1,1*
G04 #@! TO.N,N/C*
X1305000Y14480000D03*
G04 #@! TO.P,U1,2*
X1305000Y14080000D03*
G04 #@! TO.P,U1,3,GND*
G04 #@! TO.N,GND*
X1305000Y13680000D03*
G04 #@! TO.P,U1,4,VIN*
G04 #@! TO.N,+5V*
X2255000Y13680000D03*
G04 #@! TO.P,U1,5,VOUT*
G04 #@! TO.N,+3V3*
X2255000Y14080000D03*
G04 #@! TO.P,U1,6,EN*
G04 #@! TO.N,+5V*
X2255000Y14480000D03*
D47*
G04 #@! TO.P,U1,7,ePad*
G04 #@! TO.N,GND*
X1780000Y14080000D03*
G04 #@! TD*
D10*
G04 #@! TO.P,R8,1*
G04 #@! TO.N,+3V3*
X11890000Y16430000D03*
G04 #@! TO.P,R8,2*
G04 #@! TO.N,Net-(R8-Pad2)*
X12910000Y16430000D03*
G04 #@! TD*
D36*
G04 #@! TO.P,R29,1*
G04 #@! TO.N,Net-(R29-Pad1)*
X21370000Y20480000D03*
G04 #@! TO.P,R29,2*
G04 #@! TO.N,Net-(Q2-Pad1)*
X21370000Y19460000D03*
G04 #@! TD*
D39*
G04 #@! TO.P,Q3,1,S*
G04 #@! TO.N,/SD/EXT_V_{DD}*
X27530000Y21420000D03*
G04 #@! TO.P,Q3,2,G*
G04 #@! TO.N,Net-(Q3-Pad2)*
X27530000Y20920000D03*
G04 #@! TO.P,Q3,3,D*
G04 #@! TO.N,/SD/SD_{MUX}_V_{DD}*
X27530000Y20420000D03*
G04 #@! TO.P,Q3,4,S*
G04 #@! TO.N,Net-(Q3-Pad4)*
X29030000Y20420000D03*
G04 #@! TO.P,Q3,5,G*
G04 #@! TO.N,Net-(Q3-Pad2)*
X29030000Y20920000D03*
G04 #@! TO.P,Q3,6,D*
G04 #@! TO.N,Net-(Q3-Pad4)*
X29030000Y21420000D03*
G04 #@! TD*
D35*
G04 #@! TO.P,R2,1*
G04 #@! TO.N,GND*
X14340000Y17310000D03*
G04 #@! TO.P,R2,2*
G04 #@! TO.N,Net-(R1-Pad1)*
X13320000Y17310000D03*
G04 #@! TD*
D40*
G04 #@! TO.P,R31,1*
G04 #@! TO.N,GND*
X21490000Y7380000D03*
G04 #@! TO.P,R31,2*
G04 #@! TO.N,Net-(R31-Pad2)*
X21490000Y8400000D03*
G04 #@! TD*
D10*
G04 #@! TO.P,R37,1*
G04 #@! TO.N,GND*
X22690000Y18140000D03*
G04 #@! TO.P,R37,2*
G04 #@! TO.N,/SD_MUX_SEL*
X23710000Y18140000D03*
G04 #@! TD*
D17*
G04 #@! TO.P,C49,1*
G04 #@! TO.N,GND*
X25590000Y16630000D03*
G04 #@! TO.P,C49,2*
G04 #@! TO.N,Net-(C47-Pad2)*
X25590000Y15670000D03*
G04 #@! TD*
D43*
G04 #@! TO.P,D2,1,K*
G04 #@! TO.N,GND*
X1035000Y20320000D03*
G04 #@! TO.P,D2,2,A*
G04 #@! TO.N,Net-(D2-Pad2)*
X2005000Y20320000D03*
G04 #@! TD*
D11*
G04 #@! TO.P,C45,1*
G04 #@! TO.N,/SD/SD_V_{DD}*
X17040000Y20000000D03*
G04 #@! TO.P,C45,2*
G04 #@! TO.N,GND*
X17040000Y20960000D03*
G04 #@! TD*
G04 #@! TO.P,C19,1*
G04 #@! TO.N,GND*
X19720000Y10220000D03*
G04 #@! TO.P,C19,2*
G04 #@! TO.N,Net-(C19-Pad2)*
X19720000Y11180000D03*
G04 #@! TD*
D34*
G04 #@! TO.P,C3,1*
G04 #@! TO.N,GND*
X1300000Y12720000D03*
G04 #@! TO.P,C3,2*
G04 #@! TO.N,+5V*
X2260000Y12720000D03*
G04 #@! TD*
D11*
G04 #@! TO.P,C2,1*
G04 #@! TO.N,GND*
X790000Y10640000D03*
G04 #@! TO.P,C2,2*
G04 #@! TO.N,+5V*
X790000Y11600000D03*
G04 #@! TD*
D40*
G04 #@! TO.P,R28,1*
G04 #@! TO.N,/SD_MUX_SEL*
X25520000Y19010000D03*
G04 #@! TO.P,R28,2*
G04 #@! TO.N,Net-(C44-Pad1)*
X25520000Y20030000D03*
G04 #@! TD*
D48*
G04 #@! TO.P,U14,1,TXN*
G04 #@! TO.N,/GL_USB3_TX-*
X20812500Y13755000D03*
G04 #@! TO.P,U14,2,TXP*
G04 #@! TO.N,/GL_USB3_TX+*
X20812500Y13255000D03*
G04 #@! TO.P,U14,3,AV_{DD12}*
G04 #@! TO.N,Net-(C52-Pad2)*
X20812500Y12755000D03*
G04 #@! TO.P,U14,4,RXN*
G04 #@! TO.N,/GL_USB3_RX-*
X20812500Y12255000D03*
G04 #@! TO.P,U14,5,RXP*
G04 #@! TO.N,/GL_USB3_RX+*
X20812500Y11755000D03*
G04 #@! TO.P,U14,6,X1*
G04 #@! TO.N,Net-(C19-Pad2)*
X20812500Y11255000D03*
G04 #@! TO.P,U14,7,X2*
G04 #@! TO.N,Net-(C20-Pad2)*
X20812500Y10755000D03*
G04 #@! TO.P,U14,8,AV_{DD33}*
G04 #@! TO.N,Net-(C47-Pad2)*
X20812500Y10255000D03*
D49*
G04 #@! TO.P,U14,9,R_{TERM}*
G04 #@! TO.N,Net-(R31-Pad2)*
X21500000Y9567500D03*
G04 #@! TO.P,U14,10,SPI_SDI*
G04 #@! TO.N,/SD/GL_SPI_SDI*
X22000000Y9567500D03*
G04 #@! TO.P,U14,11,SPI_SDO*
G04 #@! TO.N,/SD/GL_SPI_SDO*
X22500000Y9567500D03*
G04 #@! TO.P,U14,12,SPI_CK*
G04 #@! TO.N,/SD/GL_SPI_CK*
X23000000Y9567500D03*
G04 #@! TO.P,U14,13,SPI_CS*
G04 #@! TO.N,/SD/GL_SPI_CS*
X23500000Y9567500D03*
G04 #@! TO.P,U14,14,LED*
G04 #@! TO.N,Net-(RN1-Pad7)*
X24000000Y9567500D03*
G04 #@! TO.P,U14,15,V_{BUS}*
G04 #@! TO.N,+5V*
X24500000Y9567500D03*
G04 #@! TO.P,U14,16,DV_{DD33}*
G04 #@! TO.N,Net-(C47-Pad2)*
X25000000Y9567500D03*
D48*
G04 #@! TO.P,U14,17,DV_{DD12}*
G04 #@! TO.N,Net-(C52-Pad2)*
X25687500Y10255000D03*
G04 #@! TO.P,U14,18,SD_D1*
G04 #@! TO.N,/SD/GL_DAT1*
X25687500Y10755000D03*
G04 #@! TO.P,U14,19,SD_D0*
G04 #@! TO.N,/SD/GL_DAT0*
X25687500Y11255000D03*
G04 #@! TO.P,U14,20,SD_CK*
G04 #@! TO.N,/SD/GL_CLK*
X25687500Y11755000D03*
G04 #@! TO.P,U14,21,SD_CM*
G04 #@! TO.N,/SD/GL_CMD*
X25687500Y12255000D03*
G04 #@! TO.P,U14,22,SD_D3*
G04 #@! TO.N,/SD/GL_DAT3*
X25687500Y12755000D03*
G04 #@! TO.P,U14,23,SD_D2*
G04 #@! TO.N,/SD/GL_DAT2*
X25687500Y13255000D03*
G04 #@! TO.P,U14,24,V_{UHSI}*
G04 #@! TO.N,Net-(C56-Pad1)*
X25687500Y13755000D03*
D49*
G04 #@! TO.P,U14,25,DV_{DD33}*
G04 #@! TO.N,Net-(C47-Pad2)*
X25000000Y14442500D03*
G04 #@! TO.P,U14,26,SD_V_{CC}*
G04 #@! TO.N,/SD/GL_V_{DD}*
X24500000Y14442500D03*
G04 #@! TO.P,U14,27,GND*
G04 #@! TO.N,GND*
X24000000Y14442500D03*
G04 #@! TO.P,U14,28,SD_WP*
X23500000Y14442500D03*
G04 #@! TO.P,U14,29,~SD_CD*
G04 #@! TO.N,Net-(R39-Pad2)*
X23000000Y14442500D03*
G04 #@! TO.P,U14,30,AV_{DD33}*
G04 #@! TO.N,Net-(C47-Pad2)*
X22500000Y14442500D03*
G04 #@! TO.P,U14,31,DM*
G04 #@! TO.N,/GL_USB2_D-*
X22000000Y14442500D03*
G04 #@! TO.P,U14,32,DP*
G04 #@! TO.N,/GL_USB2_D+*
X21500000Y14442500D03*
D50*
G04 #@! TO.P,U14,33,EPAD*
G04 #@! TO.N,GND*
X23250000Y12005000D03*
G04 #@! TD*
D17*
G04 #@! TO.P,C11,1*
G04 #@! TO.N,/USB-C/C_USB3_TX+*
X19240000Y15550000D03*
G04 #@! TO.P,C11,2*
G04 #@! TO.N,/GL_USB3_TX-*
X19240000Y14590000D03*
G04 #@! TD*
D51*
G04 #@! TO.P,C48,1*
G04 #@! TO.N,GND*
X20640000Y8550000D03*
G04 #@! TO.P,C48,2*
G04 #@! TO.N,Net-(C47-Pad2)*
X20000000Y8550000D03*
G04 #@! TD*
D52*
G04 #@! TO.P,U12,A1,A0*
G04 #@! TO.N,/SD/SD_DAT1*
X29825000Y8830000D03*
G04 #@! TO.P,U12,A2,SEL0*
G04 #@! TO.N,/SD_MUX_SEL*
X29175000Y8830000D03*
G04 #@! TO.P,U12,A3,B0*
G04 #@! TO.N,/SD/EXT_DAT1*
X28525000Y8830000D03*
G04 #@! TO.P,U12,A4,C0*
G04 #@! TO.N,/SD/GL_DAT1*
X27875000Y8830000D03*
G04 #@! TO.P,U12,B1*
G04 #@! TO.N,N/C*
X29825000Y9480000D03*
G04 #@! TO.P,U12,B2,GND*
G04 #@! TO.N,GND*
X29175000Y9480000D03*
G04 #@! TO.P,U12,B3*
G04 #@! TO.N,N/C*
X28525000Y9480000D03*
G04 #@! TO.P,U12,B4*
X27875000Y9480000D03*
G04 #@! TO.P,U12,C1,A2*
G04 #@! TO.N,/SD/SD_DAT0*
X29825000Y10130000D03*
G04 #@! TO.P,U12,C2,V_{DD}*
G04 #@! TO.N,/SD/SD_{MUX}_V_{DD}*
X29175000Y10130000D03*
G04 #@! TO.P,U12,C3,B2*
G04 #@! TO.N,/SD/EXT_DAT0*
X28525000Y10130000D03*
G04 #@! TO.P,U12,C4,C2*
G04 #@! TO.N,/SD/GL_DAT0*
X27875000Y10130000D03*
G04 #@! TO.P,U12,D1*
G04 #@! TO.N,N/C*
X29825000Y10780000D03*
G04 #@! TO.P,U12,D2,GND*
G04 #@! TO.N,GND*
X29175000Y10780000D03*
G04 #@! TO.P,U12,D3*
G04 #@! TO.N,N/C*
X28525000Y10780000D03*
G04 #@! TO.P,U12,D4*
X27875000Y10780000D03*
G04 #@! TO.P,U12,E1,A4*
G04 #@! TO.N,/SD/SD_CLK*
X29825000Y11430000D03*
G04 #@! TO.P,U12,E2,GND*
G04 #@! TO.N,GND*
X29175000Y11430000D03*
G04 #@! TO.P,U12,E3,B4*
G04 #@! TO.N,/SD/EXT_CLK*
X28525000Y11430000D03*
G04 #@! TO.P,U12,E4,C4*
G04 #@! TO.N,/SD/GL_CLK*
X27875000Y11430000D03*
G04 #@! TO.P,U12,F1*
G04 #@! TO.N,N/C*
X29825000Y12080000D03*
G04 #@! TO.P,U12,F2,GND*
G04 #@! TO.N,GND*
X29175000Y12080000D03*
G04 #@! TO.P,U12,F3*
G04 #@! TO.N,N/C*
X28525000Y12080000D03*
G04 #@! TO.P,U12,F4*
X27875000Y12080000D03*
G04 #@! TO.P,U12,G1,A6*
G04 #@! TO.N,/SD/SD_CMD*
X29825000Y12730000D03*
G04 #@! TO.P,U12,G2,V_{DD}*
G04 #@! TO.N,/SD/SD_{MUX}_V_{DD}*
X29175000Y12730000D03*
G04 #@! TO.P,U12,G3,B6*
G04 #@! TO.N,/SD/EXT_CMD*
X28525000Y12730000D03*
G04 #@! TO.P,U12,G4,C6*
G04 #@! TO.N,/SD/GL_CMD*
X27875000Y12730000D03*
G04 #@! TO.P,U12,H1*
G04 #@! TO.N,N/C*
X29825000Y13380000D03*
G04 #@! TO.P,U12,H2,~EN*
G04 #@! TO.N,GND*
X29175000Y13380000D03*
G04 #@! TO.P,U12,H3*
G04 #@! TO.N,N/C*
X28525000Y13380000D03*
G04 #@! TO.P,U12,H4*
X27875000Y13380000D03*
G04 #@! TO.P,U12,J1,A8*
G04 #@! TO.N,/SD/SD_DAT3*
X29825000Y14030000D03*
G04 #@! TO.P,U12,J2,GND*
G04 #@! TO.N,GND*
X29175000Y14030000D03*
G04 #@! TO.P,U12,J3,B8*
G04 #@! TO.N,/SD/EXT_DAT3*
X28525000Y14030000D03*
G04 #@! TO.P,U12,J4,C8*
G04 #@! TO.N,/SD/GL_DAT3*
X27875000Y14030000D03*
G04 #@! TO.P,U12,K1*
G04 #@! TO.N,N/C*
X29825000Y14680000D03*
G04 #@! TO.P,U12,K2,V_{DD}*
G04 #@! TO.N,/SD/SD_{MUX}_V_{DD}*
X29175000Y14680000D03*
G04 #@! TO.P,U12,K3*
G04 #@! TO.N,N/C*
X28525000Y14680000D03*
G04 #@! TO.P,U12,K4*
X27875000Y14680000D03*
G04 #@! TO.P,U12,L1,A10*
G04 #@! TO.N,/SD/SD_DAT2*
X29825000Y15330000D03*
G04 #@! TO.P,U12,L2,GND*
G04 #@! TO.N,GND*
X29175000Y15330000D03*
G04 #@! TO.P,U12,L3,B10*
G04 #@! TO.N,/SD/EXT_DAT2*
X28525000Y15330000D03*
G04 #@! TO.P,U12,L4,C10*
G04 #@! TO.N,/SD/GL_DAT2*
X27875000Y15330000D03*
G04 #@! TO.P,U12,M1*
G04 #@! TO.N,N/C*
X29825000Y15980000D03*
G04 #@! TO.P,U12,M2,SEL1*
G04 #@! TO.N,/SD_MUX_SEL*
X29175000Y15980000D03*
G04 #@! TO.P,U12,M3*
G04 #@! TO.N,N/C*
X28525000Y15980000D03*
G04 #@! TO.P,U12,M4*
X27875000Y15980000D03*
G04 #@! TD*
D17*
G04 #@! TO.P,C21,1*
G04 #@! TO.N,GND*
X6790000Y19880000D03*
G04 #@! TO.P,C21,2*
G04 #@! TO.N,+3V3*
X6790000Y18920000D03*
G04 #@! TD*
D53*
G04 #@! TO.P,U7,1,VCCIO*
G04 #@! TO.N,/FTDI/FTDI_V_{DD}*
X26130000Y2245000D03*
G04 #@! TO.P,U7,2,RXD*
G04 #@! TO.N,/FTDI/FT_RXD*
X26130000Y2895000D03*
G04 #@! TO.P,U7,3,GND*
G04 #@! TO.N,GND*
X26130000Y3545000D03*
G04 #@! TO.P,U7,4*
G04 #@! TO.N,N/C*
X26130000Y4195000D03*
D54*
G04 #@! TO.P,U7,5,CBUS2*
G04 #@! TO.N,/FTDI/FT_CBUS2*
X25155000Y5170000D03*
G04 #@! TO.P,U7,6,USBDP*
G04 #@! TO.N,/FTDI_USB2_D+*
X24505000Y5170000D03*
G04 #@! TO.P,U7,7,USBDM*
G04 #@! TO.N,/FTDI_USB2_D-*
X23855000Y5170000D03*
G04 #@! TO.P,U7,8,3V3OUT*
G04 #@! TO.N,/FTDI/FTDI_V_{DD}*
X23205000Y5170000D03*
D53*
G04 #@! TO.P,U7,9,~RESET*
X22230000Y4195000D03*
G04 #@! TO.P,U7,10,VCC*
G04 #@! TO.N,+5V*
X22230000Y3545000D03*
G04 #@! TO.P,U7,11,CBUS1*
G04 #@! TO.N,/FTDI/FT_CBUS1*
X22230000Y2895000D03*
G04 #@! TO.P,U7,12,CBUS0*
G04 #@! TO.N,/FTDI/FT_CBUS0*
X22230000Y2245000D03*
D54*
G04 #@! TO.P,U7,13,GND*
G04 #@! TO.N,GND*
X23205000Y1270000D03*
G04 #@! TO.P,U7,14,CBUS3*
G04 #@! TO.N,/SD_MUX_SEL*
X23855000Y1270000D03*
G04 #@! TO.P,U7,15,TXD*
G04 #@! TO.N,/FTDI/FT_TXD*
X24505000Y1270000D03*
G04 #@! TO.P,U7,16*
G04 #@! TO.N,N/C*
X25155000Y1270000D03*
D55*
G04 #@! TO.P,U7,17,GND*
G04 #@! TO.N,GND*
X24180000Y3220000D03*
G04 #@! TD*
D56*
G04 #@! TO.P,U3,1*
G04 #@! TO.N,/USB-C/CRX1-*
X3655000Y10040000D03*
D57*
G04 #@! TO.P,U3,2*
G04 #@! TO.N,/USB-C/CRX1+*
X4230000Y10040000D03*
G04 #@! TO.P,U3,3*
G04 #@! TO.N,/UFP_USB2_D+*
X4730000Y10040000D03*
G04 #@! TO.P,U3,4*
G04 #@! TO.N,/USB-C/CTX1+*
X5230000Y10040000D03*
G04 #@! TO.P,U3,5*
G04 #@! TO.N,/USB-C/CTX1-*
X5730000Y10040000D03*
G04 #@! TO.P,U3,6*
G04 #@! TO.N,/USB-C/CC1*
X6230000Y10040000D03*
G04 #@! TO.P,U3,7*
G04 #@! TO.N,/USB-C/CRX2-*
X6730000Y10040000D03*
G04 #@! TO.P,U3,8*
G04 #@! TO.N,/USB-C/CRX2+*
X7230000Y10040000D03*
G04 #@! TO.P,U3,9*
G04 #@! TO.N,GND*
X7730000Y10040000D03*
G04 #@! TO.P,U3,10*
G04 #@! TO.N,/USB-C/CTX2+*
X8230000Y10040000D03*
G04 #@! TO.P,U3,11*
G04 #@! TO.N,/USB-C/CTX2-*
X8730000Y10040000D03*
G04 #@! TO.P,U3,12*
G04 #@! TO.N,N/C*
X8480000Y11340000D03*
G04 #@! TO.P,U3,13*
G04 #@! TO.N,/USB-C/CC2*
X7730000Y11340000D03*
G04 #@! TO.P,U3,14*
G04 #@! TO.N,N/C*
X6980000Y11340000D03*
G04 #@! TO.P,U3,15*
G04 #@! TO.N,GND*
X6230000Y11340000D03*
G04 #@! TO.P,U3,16*
G04 #@! TO.N,N/C*
X5480000Y11340000D03*
G04 #@! TO.P,U3,17*
G04 #@! TO.N,/UFP_USB2_D-*
X4730000Y11340000D03*
G04 #@! TO.P,U3,18*
G04 #@! TO.N,N/C*
X3980000Y11340000D03*
G04 #@! TA.AperFunction,SMDPad,CuDef*
G04 #@! TO.P,U3,19*
G36*
X4980000Y10790000D02*
G01*
X4980000Y10440000D01*
X4480000Y10440000D01*
X4480000Y10790000D01*
X4630000Y10940000D01*
X4830000Y10940000D01*
X4980000Y10790000D01*
G37*
G04 #@! TD.AperFunction*
G04 #@! TA.AperFunction,SMDPad,CuDef*
G04 #@! TO.P,U3,20*
G04 #@! TO.N,GND*
G36*
X6480000Y10790000D02*
G01*
X6480000Y10440000D01*
X5980000Y10440000D01*
X5980000Y10790000D01*
X6130000Y10940000D01*
X6330000Y10940000D01*
X6480000Y10790000D01*
G37*
G04 #@! TD.AperFunction*
G04 #@! TA.AperFunction,SMDPad,CuDef*
G04 #@! TO.P,U3,21*
G36*
X7980000Y10790000D02*
G01*
X7980000Y10440000D01*
X7480000Y10440000D01*
X7480000Y10790000D01*
X7630000Y10940000D01*
X7830000Y10940000D01*
X7980000Y10790000D01*
G37*
G04 #@! TD.AperFunction*
G04 #@! TD*
D37*
G04 #@! TO.P,FID5,*
G04 #@! TO.N,*
X29000000Y22605000D03*
G04 #@! TD*
D11*
G04 #@! TO.P,C62,1*
G04 #@! TO.N,/FTDI/FTDI_EXT_V_{DD}*
X12350000Y6850000D03*
G04 #@! TO.P,C62,2*
G04 #@! TO.N,GND*
X12350000Y7810000D03*
G04 #@! TD*
D58*
G04 #@! TO.P,U5,1,A1*
G04 #@! TO.N,/FTDI/FT_RXD*
X17000000Y7230000D03*
D59*
G04 #@! TO.P,U5,2,A2*
G04 #@! TO.N,/FTDI/FT_TXD*
X17400000Y7130000D03*
G04 #@! TO.P,U5,3,A3*
G04 #@! TO.N,/FTDI/FT_CBUS0*
X17800000Y7130000D03*
G04 #@! TO.P,U5,4,A4*
G04 #@! TO.N,/FTDI/FT_CBUS1*
X18200000Y7130000D03*
D60*
G04 #@! TO.P,U5,5,DIR3*
G04 #@! TO.N,Net-(JP1-Pad2)*
X18800000Y7330000D03*
G04 #@! TO.P,U5,6,DIR4*
G04 #@! TO.N,/FTDI/FT_CBUS2*
X18800000Y7730000D03*
G04 #@! TO.P,U5,7,~OE*
G04 #@! TO.N,GND*
X18800000Y8130000D03*
G04 #@! TO.P,U5,8,GND*
X18800000Y8530000D03*
D59*
G04 #@! TO.P,U5,9,B4*
G04 #@! TO.N,/FTDI/FT_EXT_CBUS1*
X18200000Y8730000D03*
G04 #@! TO.P,U5,10,B3*
G04 #@! TO.N,/FTDI/FT_EXT_CBUS0*
X17800000Y8730000D03*
G04 #@! TO.P,U5,11,B2*
G04 #@! TO.N,/FTDI/FT_EXT_TXD*
X17400000Y8730000D03*
G04 #@! TO.P,U5,12,B1*
G04 #@! TO.N,/FTDI/FT_EXT_RXD*
X17000000Y8730000D03*
D60*
G04 #@! TO.P,U5,13,V_{CCB}*
G04 #@! TO.N,/FTDI/FTDI_EXT_V_{DD}*
X16400000Y8530000D03*
G04 #@! TO.P,U5,14,V_{CCA}*
G04 #@! TO.N,/FTDI/FTDI_V_{DD}*
X16400000Y8130000D03*
G04 #@! TO.P,U5,15,DIR1*
G04 #@! TO.N,GND*
X16400000Y7730000D03*
G04 #@! TO.P,U5,16,DIR2*
G04 #@! TO.N,/FTDI/FTDI_V_{DD}*
X16400000Y7330000D03*
G04 #@! TD*
D11*
G04 #@! TO.P,C53,1*
G04 #@! TO.N,GND*
X26375000Y7400000D03*
G04 #@! TO.P,C53,2*
G04 #@! TO.N,Net-(C52-Pad2)*
X26375000Y8360000D03*
G04 #@! TD*
D17*
G04 #@! TO.P,C52,1*
G04 #@! TO.N,GND*
X18270000Y13430000D03*
G04 #@! TO.P,C52,2*
G04 #@! TO.N,Net-(C52-Pad2)*
X18270000Y12470000D03*
G04 #@! TD*
G04 #@! TO.P,C16,1*
G04 #@! TO.N,GND*
X16740000Y14970000D03*
G04 #@! TO.P,C16,2*
G04 #@! TO.N,Net-(C16-Pad2)*
X16740000Y14010000D03*
G04 #@! TD*
G04 #@! TO.P,C13,1*
G04 #@! TO.N,/USB-C/C_USB3_TX-*
X18315000Y15550000D03*
G04 #@! TO.P,C13,2*
G04 #@! TO.N,/GL_USB3_TX+*
X18315000Y14590000D03*
G04 #@! TD*
D35*
G04 #@! TO.P,R4,1*
G04 #@! TO.N,+3V3*
X16930000Y18300000D03*
G04 #@! TO.P,R4,2*
G04 #@! TO.N,Net-(R4-Pad2)*
X15910000Y18300000D03*
G04 #@! TD*
D61*
G04 #@! TO.P,FB2,1*
G04 #@! TO.N,/USB-C/V_{BUS}*
X1990000Y9955000D03*
G04 #@! TO.P,FB2,2*
G04 #@! TO.N,+5V*
X1990000Y11605000D03*
G04 #@! TD*
D34*
G04 #@! TO.P,C4,1*
G04 #@! TO.N,GND*
X9800000Y13410000D03*
G04 #@! TO.P,C4,2*
G04 #@! TO.N,Net-(C4-Pad2)*
X10760000Y13410000D03*
G04 #@! TD*
D17*
G04 #@! TO.P,C20,1*
G04 #@! TO.N,GND*
X16700000Y11270000D03*
G04 #@! TO.P,C20,2*
G04 #@! TO.N,Net-(C20-Pad2)*
X16700000Y10310000D03*
G04 #@! TD*
D10*
G04 #@! TO.P,R30,1*
G04 #@! TO.N,Net-(Q2-Pad1)*
X20820000Y18140000D03*
G04 #@! TO.P,R30,2*
G04 #@! TO.N,GND*
X21840000Y18140000D03*
G04 #@! TD*
D43*
G04 #@! TO.P,D3,1,K*
G04 #@! TO.N,/SD/~SD_MUX_SEL*
X1035000Y18430000D03*
G04 #@! TO.P,D3,2,A*
G04 #@! TO.N,Net-(D3-Pad2)*
X2005000Y18430000D03*
G04 #@! TD*
D62*
G04 #@! TO.P,Y1,1,1*
G04 #@! TO.N,GND*
X9870000Y12460000D03*
G04 #@! TO.P,Y1,2,2*
G04 #@! TO.N,Net-(C15-Pad2)*
X9870000Y11360000D03*
G04 #@! TO.P,Y1,3,3*
G04 #@! TO.N,GND*
X10670000Y11360000D03*
G04 #@! TO.P,Y1,4,4*
G04 #@! TO.N,Net-(C4-Pad2)*
X10670000Y12460000D03*
G04 #@! TD*
D34*
G04 #@! TO.P,C18,1*
G04 #@! TO.N,+3V3*
X12550000Y9410000D03*
G04 #@! TO.P,C18,2*
G04 #@! TO.N,GND*
X13510000Y9410000D03*
G04 #@! TD*
D11*
G04 #@! TO.P,C47,1*
G04 #@! TO.N,GND*
X25450000Y7400000D03*
G04 #@! TO.P,C47,2*
G04 #@! TO.N,Net-(C47-Pad2)*
X25450000Y8360000D03*
G04 #@! TD*
D32*
G04 #@! TO.P,C15,1*
G04 #@! TO.N,GND*
X10770000Y10490000D03*
G04 #@! TO.P,C15,2*
G04 #@! TO.N,Net-(C15-Pad2)*
X9810000Y10490000D03*
G04 #@! TD*
D11*
G04 #@! TO.P,C14,1*
G04 #@! TO.N,/USB-C/C_USB3_RX-*
X5730000Y20840000D03*
G04 #@! TO.P,C14,2*
G04 #@! TO.N,/GL_USB3_RX-*
X5730000Y21800000D03*
G04 #@! TD*
G04 #@! TO.P,C56,1*
G04 #@! TO.N,Net-(C56-Pad1)*
X26530000Y15640000D03*
G04 #@! TO.P,C56,2*
G04 #@! TO.N,GND*
X26530000Y16600000D03*
G04 #@! TD*
G04 #@! TO.P,C12,1*
G04 #@! TO.N,/USB-C/C_USB3_RX+*
X6630000Y20840000D03*
G04 #@! TO.P,C12,2*
G04 #@! TO.N,/GL_USB3_RX+*
X6630000Y21800000D03*
G04 #@! TD*
D63*
G04 #@! TO.P,J1,A1,GND*
G04 #@! TO.N,GND*
X2950000Y8040000D03*
G04 #@! TO.P,J1,A2,TX1+*
G04 #@! TO.N,/USB-C/CTX1+*
X3450000Y8040000D03*
G04 #@! TO.P,J1,A3,TX1-*
G04 #@! TO.N,/USB-C/CTX1-*
X3950000Y8040000D03*
G04 #@! TO.P,J1,A4,VBUS*
G04 #@! TO.N,/USB-C/V_{BUS}*
X4450000Y8040000D03*
G04 #@! TO.P,J1,A5,CC1*
G04 #@! TO.N,/USB-C/CC1*
X4950000Y8040000D03*
G04 #@! TO.P,J1,A6,D+*
G04 #@! TO.N,/UFP_USB2_D+*
X5450000Y8040000D03*
G04 #@! TO.P,J1,A7,D-*
G04 #@! TO.N,/UFP_USB2_D-*
X6450000Y8040000D03*
G04 #@! TO.P,J1,A8*
G04 #@! TO.N,N/C*
X6950000Y8040000D03*
G04 #@! TO.P,J1,A9,VBUS*
G04 #@! TO.N,/USB-C/V_{BUS}*
X7450000Y8040000D03*
G04 #@! TO.P,J1,A10,RX2-*
G04 #@! TO.N,/USB-C/CRX2-*
X7950000Y8040000D03*
G04 #@! TO.P,J1,A11,RX2+*
G04 #@! TO.N,/USB-C/CRX2+*
X8450000Y8040000D03*
G04 #@! TO.P,J1,A12,GND*
G04 #@! TO.N,GND*
X8950000Y8040000D03*
D64*
G04 #@! TO.P,J1,B1,GND*
X9050000Y6730000D03*
D63*
G04 #@! TO.P,J1,B2,TX2+*
G04 #@! TO.N,/USB-C/CTX2+*
X8200000Y6730000D03*
G04 #@! TO.P,J1,B3,TX2-*
G04 #@! TO.N,/USB-C/CTX2-*
X7700000Y6730000D03*
G04 #@! TO.P,J1,B4,VBUS*
G04 #@! TO.N,/USB-C/V_{BUS}*
X7200000Y6730000D03*
G04 #@! TO.P,J1,B5,CC2*
G04 #@! TO.N,/USB-C/CC2*
X6700000Y6730000D03*
G04 #@! TO.P,J1,B6,D+*
G04 #@! TO.N,/UFP_USB2_D+*
X6200000Y6730000D03*
G04 #@! TO.P,J1,B7,D-*
G04 #@! TO.N,/UFP_USB2_D-*
X5700000Y6730000D03*
G04 #@! TO.P,J1,B8*
G04 #@! TO.N,N/C*
X5200000Y6730000D03*
G04 #@! TO.P,J1,B9,VBUS*
G04 #@! TO.N,/USB-C/V_{BUS}*
X4700000Y6730000D03*
G04 #@! TO.P,J1,B10,RX1-*
G04 #@! TO.N,/USB-C/CRX1-*
X4200000Y6730000D03*
G04 #@! TO.P,J1,B11,RX1+*
G04 #@! TO.N,/USB-C/CRX1+*
X3700000Y6730000D03*
D64*
G04 #@! TO.P,J1,B12,GND*
G04 #@! TO.N,GND*
X2850000Y6730000D03*
D65*
G04 #@! TO.P,J1,S1,SHIELD*
X10270000Y2260000D03*
X1630000Y2260000D03*
D66*
X1630000Y7620000D03*
X10270000Y7620000D03*
G04 #@! TD*
D67*
G04 #@! TO.P,U11,1*
G04 #@! TO.N,N/C*
X24070000Y22000000D03*
G04 #@! TO.P,U11,2*
G04 #@! TO.N,/SD_MUX_SEL*
X24070000Y22500000D03*
G04 #@! TO.P,U11,3,GND*
G04 #@! TO.N,GND*
X24070000Y23000000D03*
G04 #@! TO.P,U11,4*
G04 #@! TO.N,Net-(R24-Pad1)*
X22670000Y23000000D03*
G04 #@! TO.P,U11,5,VCC*
G04 #@! TO.N,+3V3*
X22670000Y22000000D03*
G04 #@! TD*
D36*
G04 #@! TO.P,R7,1*
G04 #@! TO.N,+3V3*
X4570000Y18030000D03*
G04 #@! TO.P,R7,2*
G04 #@! TO.N,Net-(R7-Pad2)*
X4570000Y17010000D03*
G04 #@! TD*
D11*
G04 #@! TO.P,C54,1*
G04 #@! TO.N,GND*
X24610000Y7390000D03*
G04 #@! TO.P,C54,2*
G04 #@! TO.N,+5V*
X24610000Y8350000D03*
G04 #@! TD*
D10*
G04 #@! TO.P,R12,1*
G04 #@! TO.N,/FTDI/FT_CBUS2*
X25320000Y6360000D03*
G04 #@! TO.P,R12,2*
G04 #@! TO.N,GND*
X26340000Y6360000D03*
G04 #@! TD*
D36*
G04 #@! TO.P,R26,1*
G04 #@! TO.N,/SD/~SD_MUX_SEL*
X26460000Y18830000D03*
G04 #@! TO.P,R26,2*
G04 #@! TO.N,/SD/GL_V_{DD}*
X26460000Y17810000D03*
G04 #@! TD*
D40*
G04 #@! TO.P,R25,1*
G04 #@! TO.N,/SD_MUX_SEL*
X26450000Y19670000D03*
G04 #@! TO.P,R25,2*
G04 #@! TO.N,Net-(Q3-Pad2)*
X26450000Y20690000D03*
G04 #@! TD*
D43*
G04 #@! TO.P,D4,1,K*
G04 #@! TO.N,GND*
X1035000Y19370000D03*
G04 #@! TO.P,D4,2,A*
G04 #@! TO.N,Net-(D4-Pad2)*
X2005000Y19370000D03*
G04 #@! TD*
D10*
G04 #@! TO.P,R5,1*
G04 #@! TO.N,+3V3*
X14060000Y18300000D03*
G04 #@! TO.P,R5,2*
G04 #@! TO.N,Net-(R5-Pad2)*
X15080000Y18300000D03*
G04 #@! TD*
D17*
G04 #@! TO.P,C17,1*
G04 #@! TO.N,+3V3*
X16964667Y13139535D03*
G04 #@! TO.P,C17,2*
G04 #@! TO.N,GND*
X16964667Y12179535D03*
G04 #@! TD*
D11*
G04 #@! TO.P,C43,1*
G04 #@! TO.N,/SD/SD_{MUX}_V_{DD}*
X20810000Y21820000D03*
G04 #@! TO.P,C43,2*
G04 #@! TO.N,GND*
X20810000Y22780000D03*
G04 #@! TD*
G04 #@! TO.P,C39,1*
G04 #@! TO.N,GND*
X27270000Y570000D03*
G04 #@! TO.P,C39,2*
G04 #@! TO.N,/FTDI/FTDI_V_{DD}*
X27270000Y1530000D03*
G04 #@! TD*
D68*
G04 #@! TO.P,U15,1,~CS*
G04 #@! TO.N,/SD/GL_SPI_CS*
X27820000Y2600000D03*
G04 #@! TO.P,U15,2,MISO*
G04 #@! TO.N,/SD/GL_SPI_SDI*
X28320000Y2600000D03*
G04 #@! TO.P,U15,3,~WP*
G04 #@! TO.N,+3V3*
X28820000Y2600000D03*
G04 #@! TO.P,U15,4,GND*
G04 #@! TO.N,GND*
X29320000Y2600000D03*
G04 #@! TO.P,U15,5,MOSI*
G04 #@! TO.N,/SD/GL_SPI_SDO*
X29320000Y5500000D03*
G04 #@! TO.P,U15,6,SCK*
G04 #@! TO.N,/SD/GL_SPI_CK*
X28820000Y5500000D03*
G04 #@! TO.P,U15,7,~HOLD*
G04 #@! TO.N,+3V3*
X28320000Y5500000D03*
G04 #@! TO.P,U15,8,VCC*
X27820000Y5500000D03*
D69*
G04 #@! TO.P,U15,9,GND*
G04 #@! TO.N,GND*
X28570000Y4050000D03*
G04 #@! TD*
D70*
G04 #@! TO.P,U13,1*
G04 #@! TO.N,/SD_MUX_SEL*
X24390000Y19350000D03*
G04 #@! TO.P,U13,2*
G04 #@! TO.N,Net-(C44-Pad1)*
X24390000Y20000000D03*
G04 #@! TO.P,U13,3,GND*
G04 #@! TO.N,N/C*
X24390000Y20650000D03*
G04 #@! TO.P,U13,4*
G04 #@! TO.N,Net-(R29-Pad1)*
X22490000Y20650000D03*
G04 #@! TO.P,U13,5,VCC*
G04 #@! TO.N,N/C*
X22490000Y19350000D03*
G04 #@! TD*
D37*
G04 #@! TO.P,FID1,*
G04 #@! TO.N,*
X29000000Y1000000D03*
G04 #@! TD*
D71*
G04 #@! TO.P,RN2,1,R1.1*
G04 #@! TO.N,/FTDI/FT_EXT_CBUS1_R*
X13410000Y7240000D03*
D57*
G04 #@! TO.P,RN2,2,R2.1*
G04 #@! TO.N,/FTDI/FT_EXT_CBUS0_R*
X13910000Y7240000D03*
G04 #@! TO.P,RN2,3,R3.1*
G04 #@! TO.N,/FTDI/FT_EXT_TXD_R*
X14410000Y7240000D03*
D71*
G04 #@! TO.P,RN2,4,R4.1*
G04 #@! TO.N,/FTDI/FT_EXT_RXD_R*
X14910000Y7240000D03*
G04 #@! TO.P,RN2,5,R4.2*
G04 #@! TO.N,/FTDI/FT_EXT_RXD*
X14910000Y8240000D03*
D57*
G04 #@! TO.P,RN2,6,R3.2*
G04 #@! TO.N,/FTDI/FT_EXT_TXD*
X14410000Y8240000D03*
G04 #@! TO.P,RN2,7,R2.2*
G04 #@! TO.N,/FTDI/FT_EXT_CBUS0*
X13910000Y8240000D03*
D71*
G04 #@! TO.P,RN2,8,R1.2*
G04 #@! TO.N,/FTDI/FT_EXT_CBUS1*
X13410000Y8240000D03*
G04 #@! TD*
D17*
G04 #@! TO.P,C1,1*
G04 #@! TO.N,+5V*
X10970000Y17340000D03*
G04 #@! TO.P,C1,2*
G04 #@! TO.N,GND*
X10970000Y16380000D03*
G04 #@! TD*
D36*
G04 #@! TO.P,R39,1*
G04 #@! TO.N,/SD/~SD_MUX_SEL*
X23390000Y16720000D03*
G04 #@! TO.P,R39,2*
G04 #@! TO.N,Net-(R39-Pad2)*
X23390000Y15700000D03*
G04 #@! TD*
D34*
G04 #@! TO.P,C41,1*
G04 #@! TO.N,/SD/SD_{MUX}_V_{DD}*
X28120000Y7640000D03*
G04 #@! TO.P,C41,2*
G04 #@! TO.N,GND*
X29080000Y7640000D03*
G04 #@! TD*
D11*
G04 #@! TO.P,C5,1*
G04 #@! TO.N,/USB-C/CTX1+*
X5020001Y12669999D03*
G04 #@! TO.P,C5,2*
G04 #@! TO.N,/USB-C/C_CTX1-*
X5020001Y13629999D03*
G04 #@! TD*
D72*
G04 #@! TO.N,+5V*
X10470000Y17340000D03*
X24580000Y8880000D03*
X2230000Y15160000D03*
X21570000Y5830000D03*
X2840000Y12720000D03*
G04 #@! TO.N,GND*
X23375000Y12105000D03*
X30600000Y9555000D03*
X12630000Y12310000D03*
X19090000Y4060000D03*
X16410000Y20960000D03*
X21970000Y10800000D03*
X16010000Y15220000D03*
X13710000Y13340000D03*
X24520000Y12120000D03*
X1300000Y12175000D03*
X22060000Y12100000D03*
X9290000Y8630000D03*
X26120000Y21750000D03*
X23530000Y23030000D03*
X29175000Y13705000D03*
X20060000Y22780000D03*
X26930000Y7430000D03*
X2950000Y8605000D03*
X27110000Y16610000D03*
X8980000Y7400000D03*
X22240000Y18690000D03*
X29175000Y11105000D03*
X29320000Y1980000D03*
X17170000Y11650000D03*
X24450000Y10780000D03*
X7140000Y20370000D03*
X22170000Y13030000D03*
X30613672Y14755000D03*
X7950000Y9480000D03*
X2870000Y7390000D03*
X30600000Y12159999D03*
X24163433Y16217046D03*
X10204081Y13002909D03*
X46300000Y10255000D03*
X1780000Y14080000D03*
X46300000Y9355000D03*
X1770000Y13610000D03*
X22050000Y7790000D03*
X13990000Y16450000D03*
X18940000Y22480000D03*
X18085000Y13990000D03*
X476081Y10135081D03*
X1780000Y14550000D03*
X26650000Y530000D03*
X18780000Y9160000D03*
X10770000Y9770000D03*
X1697809Y15021168D03*
X23979657Y12709657D03*
X2100000Y6360000D03*
X1400000Y10640000D03*
X29850000Y7690000D03*
X23220000Y1940000D03*
X6220000Y12000000D03*
X1540000Y21800000D03*
X25490000Y3540000D03*
X14710000Y14380000D03*
X12640000Y14380000D03*
X20830000Y17250000D03*
X9810000Y6280000D03*
X14680000Y12290000D03*
G04 #@! TO.N,+3V3*
X2800000Y14530000D03*
X27980000Y870000D03*
X12410000Y10670000D03*
X4100000Y18400000D03*
X12330000Y16020000D03*
X23180000Y22000000D03*
X2800000Y15180000D03*
X27820000Y6110000D03*
X16340000Y13060000D03*
X6780000Y18340000D03*
G04 #@! TO.N,/USB-C/C_USB3_TX-*
X9270000Y21495000D03*
X18500000Y16670000D03*
G04 #@! TO.N,/USB-C/C_USB3_TX+*
X19050003Y16670000D03*
X9270000Y22045000D03*
G04 #@! TO.N,/SD/~SD_MUX_SEL*
X19960000Y18420000D03*
X1070000Y17690000D03*
X4650000Y19510000D03*
G04 #@! TO.N,/GL_USB3_RX+*
X10345000Y20690000D03*
X19325001Y11729999D03*
G04 #@! TO.N,/GL_USB3_RX-*
X19325001Y12280000D03*
X10895000Y20690000D03*
G04 #@! TO.N,/FTDI/FTDI_V_{DD}*
X15740000Y7480000D03*
X22360000Y5090000D03*
X26170000Y1640000D03*
G04 #@! TO.N,/SD/SD_{MUX}_V_{DD}*
X20850000Y21220000D03*
X27530000Y20060000D03*
X27530000Y19620000D03*
X28000000Y17720000D03*
X20340000Y21260000D03*
G04 #@! TO.N,/SD/SD_V_{DD}*
X18190000Y20720000D03*
G04 #@! TO.N,Net-(C47-Pad2)*
X25480000Y14800000D03*
X19325450Y9547081D03*
X22490000Y15160000D03*
X25510000Y9400000D03*
G04 #@! TO.N,Net-(C52-Pad2)*
X18730928Y12928732D03*
X26375000Y9567500D03*
G04 #@! TO.N,/USB-C/V_{BUS}*
X7360000Y3880000D03*
X1160000Y10000000D03*
X800000Y9660000D03*
X4680000Y3890000D03*
G04 #@! TO.N,/UFP_USB2_D+*
X5675000Y8901419D03*
X10500000Y14055000D03*
X4520000Y9450000D03*
X6225000Y5780000D03*
G04 #@! TO.N,/UFP_USB2_D-*
X5675000Y5780000D03*
X6225000Y8901419D03*
X10500000Y14605000D03*
X4660000Y11990000D03*
G04 #@! TO.N,/USB-C/CC2*
X7690000Y11960000D03*
X9576208Y19205000D03*
X6800000Y5910000D03*
G04 #@! TO.N,/USB-C/CC1*
X6055000Y9465000D03*
X9220000Y18780000D03*
G04 #@! TO.N,/SD/SD_DAT2*
X30351647Y15255000D03*
G04 #@! TO.N,/SD/SD_DAT3*
X30351647Y13955000D03*
G04 #@! TO.N,/SD/SD_CMD*
X30350000Y12650001D03*
G04 #@! TO.N,/SD/SD_CLK*
X30350000Y11359999D03*
G04 #@! TO.N,/SD/SD_DAT0*
X30352729Y10050001D03*
G04 #@! TO.N,/SD/SD_DAT1*
X30367004Y8755000D03*
G04 #@! TO.N,/SD/EXT_V_{DD}*
X28230000Y21430000D03*
X46350000Y12255000D03*
X46350000Y11805000D03*
G04 #@! TO.N,/SD/GL_V_{DD}*
X24570000Y15150000D03*
X26000000Y17300000D03*
G04 #@! TO.N,/SD_MUX_SEL*
X22650000Y1030000D03*
X29170000Y16520000D03*
X29160000Y8320000D03*
X23380000Y17520000D03*
G04 #@! TO.N,/FTDI_USB2_D-*
X23890010Y6056271D03*
X13000000Y10385698D03*
G04 #@! TO.N,/FTDI_USB2_D+*
X13550000Y10385698D03*
X24440000Y6060000D03*
G04 #@! TO.N,/GL_USB2_D-*
X15501072Y16759982D03*
X15560000Y10255000D03*
G04 #@! TO.N,/GL_USB2_D+*
X15560000Y10805000D03*
X15889982Y16371072D03*
G04 #@! TO.N,/FTDI/FT_RXD*
X26850000Y2890000D03*
X17242843Y7807157D03*
G04 #@! TO.N,/SD/GL_SPI_CK*
X28600000Y6210000D03*
X23100000Y8809475D03*
G04 #@! TO.N,/SD/GL_SPI_SDO*
X29210161Y6093970D03*
X22549999Y8810116D03*
G04 #@! TO.N,/SD/GL_SPI_SDI*
X22156794Y8418502D03*
X27987922Y1892239D03*
G04 #@! TO.N,Net-(RN1-Pad7)*
X3230000Y13190000D03*
X24033362Y8819263D03*
G04 #@! TO.N,Net-(JP1-Pad2)*
X20780000Y5970000D03*
G04 #@! TD*
D73*
G04 #@! TO.N,+5V*
X21570000Y5830000D02*
X20570000Y6830000D01*
D74*
X8560000Y19730000D02*
X9680210Y19730000D01*
D75*
X1985000Y11600000D02*
X1990000Y11605000D01*
D74*
X10970000Y18440210D02*
X10970000Y17340000D01*
D73*
X2255000Y12725000D02*
X2260000Y12720000D01*
D74*
X9980000Y17340000D02*
X10470000Y17340000D01*
X9680210Y19730000D02*
X10970000Y18440210D01*
X11270000Y17340000D02*
X12190000Y18260000D01*
X10970000Y17340000D02*
X11270000Y17340000D01*
D73*
X24500000Y8960000D02*
X24580000Y8880000D01*
D74*
X2255000Y14480000D02*
X2255000Y15135000D01*
D73*
X21570000Y3780000D02*
X21570000Y5830000D01*
D76*
X2260000Y12720000D02*
X2840000Y12720000D01*
D73*
X24500000Y9567500D02*
X24500000Y8960000D01*
D74*
X10470000Y17340000D02*
X10970000Y17340000D01*
D76*
X2260000Y12720000D02*
X2260000Y11875000D01*
D74*
X2255000Y15135000D02*
X2230000Y15160000D01*
D73*
X24610000Y8850000D02*
X24580000Y8880000D01*
X22230000Y3545000D02*
X21805000Y3545000D01*
D75*
X790000Y11600000D02*
X1985000Y11600000D01*
D73*
X21805000Y3545000D02*
X21570000Y3780000D01*
X24610000Y8350000D02*
X24610000Y8850000D01*
X2255000Y13680000D02*
X2255000Y12725000D01*
D76*
X2260000Y11875000D02*
X1990000Y11605000D01*
D73*
G04 #@! TO.N,GND*
X11650000Y9300000D02*
X11240000Y9300000D01*
X20570000Y8480000D02*
X20640000Y8550000D01*
D74*
X9080000Y16940000D02*
X8980000Y16840000D01*
X29080000Y6640000D02*
X29070000Y6630000D01*
D76*
X21730000Y22790000D02*
X20820000Y22790000D01*
D73*
X8950000Y8040000D02*
X8950000Y8290000D01*
D77*
X29175000Y11430000D02*
X29175000Y11105000D01*
D74*
X29320000Y3300000D02*
X28570000Y4050000D01*
D78*
X30055127Y9800001D02*
X30300128Y9555000D01*
D73*
X26530000Y16600000D02*
X27100000Y16600000D01*
D74*
X18950000Y10220000D02*
X18770000Y10400000D01*
D73*
X24000000Y14442500D02*
X24000000Y12755000D01*
D74*
X12350000Y8829980D02*
X12304990Y8874990D01*
X12350000Y7810000D02*
X12350000Y8829980D01*
D77*
X29175000Y10780000D02*
X29175000Y11105000D01*
D74*
X24610000Y7390000D02*
X25440000Y7390000D01*
D75*
X13700000Y13330000D02*
X13710000Y13340000D01*
D73*
X23250000Y12005000D02*
X23275000Y12005000D01*
D78*
X30233600Y14755000D02*
X30613672Y14755000D01*
D73*
X790000Y10640000D02*
X1400000Y10640000D01*
X21930000Y7230000D02*
X21930000Y7670000D01*
X6230000Y11990000D02*
X6220000Y12000000D01*
X9870000Y12460000D02*
X9870000Y12668828D01*
D74*
X9980000Y16940000D02*
X9080000Y16940000D01*
D73*
X26690000Y570000D02*
X26650000Y530000D01*
X790000Y10640000D02*
X790000Y10449000D01*
X21930000Y7230000D02*
X21640000Y7230000D01*
X21840000Y18140000D02*
X22260000Y18140000D01*
X7730000Y9700000D02*
X7950000Y9480000D01*
X1697809Y15021168D02*
X1697809Y15677809D01*
X7730000Y10040000D02*
X7730000Y9700000D01*
D74*
X18800000Y8530000D02*
X18800000Y9140000D01*
X18780000Y10390000D02*
X18770000Y10400000D01*
X19100000Y5120000D02*
X19100000Y4070000D01*
D73*
X2470000Y6730000D02*
X2100000Y6360000D01*
D74*
X29320000Y2600000D02*
X29320000Y3300000D01*
D76*
X20820000Y22790000D02*
X20810000Y22780000D01*
D74*
X17620000Y11200000D02*
X17170000Y11650000D01*
D73*
X12075010Y8874990D02*
X11650000Y9300000D01*
D79*
X17120000Y8250000D02*
X18680000Y8250000D01*
D73*
X24630000Y16680000D02*
X24626387Y16680000D01*
X11240000Y9300000D02*
X10770000Y9770000D01*
D79*
X16425010Y7755010D02*
X16625010Y7755010D01*
D73*
X23560000Y23000000D02*
X23530000Y23030000D01*
X2950000Y7470000D02*
X2870000Y7390000D01*
D78*
X29175000Y12080000D02*
X29495001Y12400001D01*
D73*
X8950000Y7430000D02*
X8980000Y7400000D01*
D74*
X13920000Y15267500D02*
X13920000Y13580000D01*
D73*
X16740000Y14970000D02*
X16260000Y14970000D01*
X1305000Y13680000D02*
X1305000Y12725000D01*
X21930000Y7670000D02*
X22050000Y7790000D01*
D74*
X18780000Y9160000D02*
X18780000Y10390000D01*
D77*
X29175000Y13380000D02*
X29175000Y13805000D01*
D73*
X1375000Y13610000D02*
X1305000Y13680000D01*
X27420000Y16920000D02*
X27110000Y16610000D01*
D74*
X13990000Y16960000D02*
X14340000Y17310000D01*
D73*
X20570000Y7790000D02*
X20570000Y8480000D01*
D79*
X6790000Y19880000D02*
X6790000Y20020000D01*
D74*
X16790000Y11270000D02*
X17170000Y11650000D01*
X1035000Y21265000D02*
X1040000Y21270000D01*
D73*
X23375000Y12105000D02*
X23979657Y12709657D01*
D74*
X26030000Y21840000D02*
X26120000Y21750000D01*
X9980000Y16540000D02*
X7780000Y16540000D01*
D78*
X29495001Y9800001D02*
X30055127Y9800001D01*
D73*
X13510000Y9410000D02*
X12974990Y8874990D01*
D74*
X19720000Y10220000D02*
X18950000Y10220000D01*
D73*
X790000Y10449000D02*
X476081Y10135081D01*
X1780000Y13620000D02*
X1770000Y13610000D01*
X8950000Y8040000D02*
X8950000Y7430000D01*
D75*
X1840000Y15820000D02*
X1840000Y16740000D01*
D73*
X23205000Y1925000D02*
X23220000Y1940000D01*
X12304990Y8874990D02*
X12075010Y8874990D01*
X1697809Y15677809D02*
X1840000Y15820000D01*
X21080000Y7790000D02*
X21490000Y7380000D01*
X7730000Y10690000D02*
X7730000Y10040000D01*
D78*
X29495001Y12400001D02*
X29978601Y12400001D01*
D73*
X8950000Y8290000D02*
X9290000Y8630000D01*
D78*
X29175000Y9480000D02*
X29495001Y9800001D01*
D73*
X48200000Y9805000D02*
X47000000Y9805000D01*
D74*
X1040000Y21300000D02*
X1540000Y21800000D01*
D73*
X21640000Y7230000D02*
X21490000Y7380000D01*
X24000000Y16050000D02*
X24630000Y16680000D01*
X24626387Y16680000D02*
X24163433Y16217046D01*
X6230000Y11340000D02*
X6230000Y11990000D01*
D74*
X18800000Y9140000D02*
X18780000Y9160000D01*
D79*
X6790000Y20020000D02*
X7140000Y20370000D01*
D74*
X5580000Y16940000D02*
X6480000Y16940000D01*
D73*
X22260000Y18670000D02*
X22240000Y18690000D01*
D74*
X17670000Y11200000D02*
X17620000Y11200000D01*
D73*
X23220000Y1940000D02*
X23220000Y2260000D01*
X46550000Y9355000D02*
X46300000Y9355000D01*
D74*
X16964667Y12179535D02*
X16964667Y11855333D01*
D73*
X22450000Y17240000D02*
X22450000Y17900000D01*
X23220000Y2260000D02*
X24180000Y3220000D01*
X9870000Y12668828D02*
X10204081Y13002909D01*
X27100000Y16600000D02*
X27110000Y16610000D01*
D74*
X29800000Y7640000D02*
X29850000Y7690000D01*
D73*
X1770000Y13610000D02*
X1375000Y13610000D01*
D78*
X29175000Y15330000D02*
X29495001Y15009999D01*
D73*
X24000000Y12755000D02*
X23250000Y12005000D01*
X10770000Y10490000D02*
X10770000Y11260000D01*
X1305000Y12725000D02*
X1300000Y12720000D01*
D74*
X19100000Y4070000D02*
X19090000Y4060000D01*
X8980000Y16240000D02*
X8380000Y16840000D01*
X5580000Y16540000D02*
X7780000Y16540000D01*
D73*
X9050000Y6730000D02*
X9050000Y7330000D01*
X23500000Y14442500D02*
X23500000Y13820000D01*
D76*
X20810000Y22780000D02*
X20060000Y22780000D01*
D73*
X1780000Y14080000D02*
X1780000Y13620000D01*
X24070000Y23000000D02*
X23560000Y23000000D01*
D74*
X16964667Y11855333D02*
X17170000Y11650000D01*
D73*
X25490000Y3540000D02*
X24500000Y3540000D01*
D74*
X6480000Y16940000D02*
X6580000Y16840000D01*
D73*
X1780000Y14550000D02*
X1780000Y14938977D01*
X23275000Y12005000D02*
X23375000Y12105000D01*
X9800000Y13410000D02*
X9800000Y13406990D01*
X26530000Y16600000D02*
X25630000Y16600000D01*
D76*
X18960000Y22460000D02*
X18940000Y22480000D01*
D78*
X30300128Y9555000D02*
X30600000Y9555000D01*
D73*
X25495000Y3545000D02*
X25490000Y3540000D01*
X20840000Y17240000D02*
X20830000Y17250000D01*
X18270000Y13430000D02*
X18270000Y13805000D01*
D74*
X16700000Y11270000D02*
X16790000Y11270000D01*
D73*
X24500000Y3540000D02*
X24180000Y3220000D01*
D79*
X18800000Y8530000D02*
X18800000Y8130000D01*
D73*
X10860000Y9680000D02*
X10770000Y9770000D01*
X22260000Y18140000D02*
X22690000Y18140000D01*
X27420000Y17160000D02*
X27420000Y16920000D01*
X2850000Y7370000D02*
X2870000Y7390000D01*
D74*
X26850000Y3840000D02*
X26850000Y5850000D01*
X1035000Y19370000D02*
X1035000Y20320000D01*
D73*
X2950000Y8040000D02*
X2950000Y8605000D01*
X1780000Y14080000D02*
X1780000Y14550000D01*
D74*
X26130000Y3545000D02*
X26555000Y3545000D01*
D73*
X22260000Y18140000D02*
X22260000Y18670000D01*
X25550000Y16680000D02*
X24630000Y16680000D01*
X22450000Y17900000D02*
X22690000Y18140000D01*
X25630000Y16600000D02*
X25550000Y16680000D01*
X46550000Y10255000D02*
X46300000Y10255000D01*
D74*
X13920000Y16380000D02*
X13990000Y16450000D01*
D78*
X29978601Y12400001D02*
X30218603Y12159999D01*
D73*
X2950000Y8040000D02*
X2950000Y7470000D01*
D74*
X29080000Y7640000D02*
X29800000Y7640000D01*
X9980000Y16540000D02*
X10810000Y16540000D01*
D78*
X29978601Y15009999D02*
X30233600Y14755000D01*
D73*
X24000000Y14442500D02*
X24000000Y16050000D01*
D74*
X25440000Y7390000D02*
X25450000Y7400000D01*
D73*
X1780000Y14938977D02*
X1697809Y15021168D01*
X10770000Y11260000D02*
X10670000Y11360000D01*
D79*
X16625010Y7755010D02*
X17120000Y8250000D01*
D74*
X29320000Y2600000D02*
X29320000Y1980000D01*
D73*
X23500000Y13820000D02*
X23500000Y12255000D01*
X18270000Y13805000D02*
X18085000Y13990000D01*
D74*
X25450000Y7400000D02*
X26375000Y7400000D01*
X29080000Y7555000D02*
X29080000Y6640000D01*
X8380000Y16840000D02*
X8380000Y17740000D01*
D78*
X30218603Y12159999D02*
X30600000Y12159999D01*
D76*
X17040000Y20960000D02*
X16410000Y20960000D01*
D73*
X6230000Y10690000D02*
X6230000Y11340000D01*
X21530000Y17240000D02*
X20840000Y17240000D01*
D75*
X13670000Y13330000D02*
X13700000Y13330000D01*
D74*
X26850000Y5850000D02*
X26340000Y6360000D01*
D77*
X29175000Y14030000D02*
X29175000Y13805000D01*
D73*
X47000000Y9805000D02*
X46550000Y10255000D01*
D74*
X26900000Y7400000D02*
X26930000Y7430000D01*
D73*
X12974990Y8874990D02*
X12304990Y8874990D01*
X16260000Y14970000D02*
X16010000Y15220000D01*
D74*
X26375000Y7400000D02*
X26900000Y7400000D01*
D76*
X18960000Y21850000D02*
X18960000Y22460000D01*
D74*
X13920000Y15267500D02*
X13920000Y16380000D01*
D73*
X10770000Y9770000D02*
X10770000Y10490000D01*
D74*
X1035000Y20320000D02*
X1035000Y21265000D01*
D73*
X1300000Y12720000D02*
X1300000Y12175000D01*
X23500000Y12255000D02*
X23250000Y12005000D01*
D74*
X25510000Y21840000D02*
X26030000Y21840000D01*
D73*
X9050000Y6730000D02*
X9360000Y6730000D01*
D74*
X1040000Y21270000D02*
X1040000Y21300000D01*
D73*
X47000000Y9805000D02*
X46550000Y9355000D01*
D79*
X18680000Y8250000D02*
X18800000Y8130000D01*
D73*
X22420000Y7230000D02*
X21930000Y7230000D01*
X23205000Y1270000D02*
X23205000Y1925000D01*
X2850000Y6730000D02*
X2850000Y7370000D01*
X9360000Y6730000D02*
X9810000Y6280000D01*
D74*
X13920000Y13580000D02*
X13670000Y13330000D01*
D73*
X27270000Y570000D02*
X26690000Y570000D01*
X9800000Y13406990D02*
X10204081Y13002909D01*
D79*
X16400000Y7730000D02*
X16425010Y7755010D01*
D74*
X10810000Y16540000D02*
X10970000Y16380000D01*
X6790000Y19880000D02*
X6790000Y20050000D01*
X13990000Y16450000D02*
X13990000Y16960000D01*
D73*
X20570000Y7790000D02*
X21080000Y7790000D01*
X9050000Y7330000D02*
X8980000Y7400000D01*
X2850000Y6730000D02*
X2470000Y6730000D01*
X26130000Y3545000D02*
X25495000Y3545000D01*
D74*
X26555000Y3545000D02*
X26850000Y3840000D01*
D73*
X21530000Y17240000D02*
X22450000Y17240000D01*
D78*
X29495001Y15009999D02*
X29978601Y15009999D01*
D79*
G04 #@! TO.N,Net-(C4-Pad2)*
X11732500Y13580000D02*
X10930000Y13580000D01*
X10930000Y13580000D02*
X10760000Y13410000D01*
X10670000Y13320000D02*
X10760000Y13410000D01*
X10670000Y12460000D02*
X10670000Y13320000D01*
D77*
G04 #@! TO.N,/USB-C/C_CTX1-*
X5375056Y14550620D02*
X5375056Y13985053D01*
X5554436Y14730000D02*
X5375056Y14550620D01*
X6070000Y14895564D02*
X5904436Y14730000D01*
X5375056Y13985053D02*
X5020002Y13629999D01*
X5904436Y14730000D02*
X5554436Y14730000D01*
X6070000Y15250000D02*
X6070000Y14895564D01*
X5020002Y13629999D02*
X5020001Y13629999D01*
X5980000Y15340000D02*
X6070000Y15250000D01*
G04 #@! TO.N,/USB-C/CTX1-*
X4165554Y8769990D02*
X4701131Y8769990D01*
X3810000Y8414436D02*
X4165554Y8769990D01*
X5590000Y10929999D02*
X5590000Y10180000D01*
X5595400Y12314600D02*
X5950454Y12669654D01*
X5590009Y9841131D02*
X5590000Y9841140D01*
X5790001Y11718001D02*
X5790001Y10961999D01*
X5595400Y11912602D02*
X5595400Y12314600D01*
X3810000Y8180000D02*
X3810000Y8414436D01*
X5590000Y9841140D02*
X5590000Y9900000D01*
X5950454Y12669654D02*
X5950455Y12669654D01*
X5790001Y11718001D02*
X5595400Y11912602D01*
X3950000Y8040000D02*
X3810000Y8180000D01*
X5758001Y10929999D02*
X5590000Y10929999D01*
X5790001Y10961999D02*
X5758001Y10929999D01*
X5590000Y10180000D02*
X5730000Y10040000D01*
X4701131Y8769990D02*
X5590009Y9658869D01*
X5590009Y9658869D02*
X5590009Y9841131D01*
X5590000Y9900000D02*
X5730000Y10040000D01*
G04 #@! TO.N,/USB-C/C_CTX2-*
X7954436Y14530000D02*
X8294436Y14530000D01*
X8294436Y14530000D02*
X8360000Y14464436D01*
X7580000Y15340000D02*
X7670000Y15250000D01*
X8360000Y14464436D02*
X8360000Y14010000D01*
X7670000Y15250000D02*
X7670000Y14814436D01*
X7670000Y14814436D02*
X7954436Y14530000D01*
X8360000Y14010000D02*
X8010000Y13660000D01*
G04 #@! TO.N,/USB-C/CTX2-*
X8590000Y9900000D02*
X8730000Y10040000D01*
X8580000Y12350000D02*
X8930000Y12700000D01*
X10635564Y9300000D02*
X8925564Y9300000D01*
X11380000Y6454436D02*
X11380000Y8555564D01*
X7840000Y6590000D02*
X7840000Y5924436D01*
X11380000Y8555564D02*
X10635564Y9300000D01*
X8730000Y10040000D02*
X8590000Y10180000D01*
X8790001Y10961999D02*
X8790001Y11718001D01*
X7840000Y5924436D02*
X8244436Y5520000D01*
X8925564Y9300000D02*
X8590000Y9635564D01*
X8590000Y10180000D02*
X8590000Y10929999D01*
X10445564Y5520000D02*
X11380000Y6454436D01*
X8758001Y10929999D02*
X8790001Y10961999D01*
X7700000Y6730000D02*
X7840000Y6590000D01*
X8580000Y11928002D02*
X8580000Y12350000D01*
X8244436Y5520000D02*
X10445564Y5520000D01*
X8790001Y11718001D02*
X8580000Y11928002D01*
X8590000Y10929999D02*
X8758001Y10929999D01*
X8590000Y9635564D02*
X8590000Y9900000D01*
D73*
G04 #@! TO.N,+3V3*
X12420000Y15267500D02*
X12420000Y15930000D01*
D79*
X14060000Y18910000D02*
X14060000Y18300000D01*
D74*
X23060000Y21880000D02*
X23060000Y20412140D01*
D79*
X16700000Y18910000D02*
X14060000Y18910000D01*
D74*
X6790000Y18350000D02*
X6780000Y18340000D01*
X6780000Y17740000D02*
X6780000Y18340000D01*
D73*
X2800000Y15820000D02*
X2800000Y16740000D01*
D74*
X17900000Y18300000D02*
X16930000Y18300000D01*
D73*
X2800000Y17490000D02*
X2800000Y16740000D01*
D74*
X12300000Y16020000D02*
X11890000Y16430000D01*
D73*
X16885132Y13060000D02*
X16340000Y13060000D01*
X16964667Y13139535D02*
X16885132Y13060000D01*
X4100000Y18400000D02*
X3710000Y18400000D01*
D74*
X27820000Y5500000D02*
X27820000Y6340000D01*
D79*
X14060000Y18910000D02*
X12830000Y18910000D01*
X16930000Y18680000D02*
X16700000Y18910000D01*
X12635010Y17215010D02*
X12330000Y16910000D01*
D76*
X22670000Y22000000D02*
X21900000Y22000000D01*
D79*
X12635010Y18715010D02*
X12635010Y17215010D01*
D73*
X2800000Y15820000D02*
X2800000Y15180000D01*
D74*
X6790000Y18920000D02*
X6790000Y18350000D01*
X3764998Y19030000D02*
X3574999Y19219999D01*
D76*
X21900000Y22000000D02*
X21730000Y21830000D01*
D74*
X4100000Y18400000D02*
X4100000Y18955000D01*
X4100000Y18955000D02*
X4025000Y19030000D01*
D79*
X16930000Y18300000D02*
X16930000Y18680000D01*
D74*
X12330000Y16020000D02*
X12300000Y16020000D01*
D73*
X2800000Y15180000D02*
X2800000Y14530000D01*
D76*
X22670000Y22000000D02*
X23180000Y22000000D01*
D73*
X15607500Y13080000D02*
X16320000Y13080000D01*
D74*
X23180000Y22000000D02*
X23060000Y21880000D01*
D79*
X12830000Y18910000D02*
X12635010Y18715010D01*
D74*
X3574999Y20340001D02*
X3764998Y20530000D01*
D73*
X2255000Y14080000D02*
X2640000Y14080000D01*
X12420000Y10680000D02*
X12410000Y10670000D01*
D74*
X28820000Y2090000D02*
X27980000Y1250000D01*
X27820000Y6340000D02*
X27820000Y6110000D01*
X4025000Y19030000D02*
X3764998Y19030000D01*
D73*
X3710000Y18400000D02*
X2800000Y17490000D01*
D74*
X19590000Y19990000D02*
X17900000Y18300000D01*
D73*
X2640000Y14080000D02*
X2800000Y14240000D01*
D74*
X27820000Y6340000D02*
X28110000Y6630000D01*
X28820000Y2600000D02*
X28820000Y2090000D01*
X22637860Y19990000D02*
X19590000Y19990000D01*
X3574999Y19219999D02*
X3574999Y20340001D01*
X23060000Y20412140D02*
X22637860Y19990000D01*
X28320000Y5500000D02*
X27820000Y5500000D01*
D73*
X4570000Y17930000D02*
X4100000Y18400000D01*
D79*
X12330000Y16910000D02*
X12330000Y16020000D01*
D73*
X12420000Y11392500D02*
X12420000Y10680000D01*
D74*
X27980000Y1250000D02*
X27980000Y870000D01*
D73*
X2800000Y14240000D02*
X2800000Y14530000D01*
X12550000Y9410000D02*
X12550000Y10530000D01*
X12420000Y15930000D02*
X12330000Y16020000D01*
D74*
X3764998Y20530000D02*
X4025000Y20530000D01*
D73*
X16320000Y13080000D02*
X16340000Y13060000D01*
X12550000Y10530000D02*
X12410000Y10670000D01*
D77*
G04 #@! TO.N,/USB-C/C_CTX1+*
X5595056Y14459492D02*
X5595056Y13985053D01*
X5995564Y14510000D02*
X5645564Y14510000D01*
X6290000Y14804436D02*
X5995564Y14510000D01*
X5595056Y13985053D02*
X5950455Y13629654D01*
X6380000Y15340000D02*
X6290000Y15250000D01*
X6290000Y15250000D02*
X6290000Y14804436D01*
X5645564Y14510000D02*
X5595056Y14459492D01*
G04 #@! TO.N,/USB-C/CTX1+*
X5201999Y10929999D02*
X5370000Y10929999D01*
X3450000Y8040000D02*
X3590000Y8180000D01*
X3590000Y8505564D02*
X4074436Y8990000D01*
X5370000Y9750000D02*
X5370000Y9900000D01*
X5375400Y12314600D02*
X5020001Y12669999D01*
X5169999Y11718001D02*
X5375400Y11923402D01*
X5169999Y10961999D02*
X5201999Y10929999D01*
X5375400Y11923402D02*
X5375400Y12314600D01*
X5169999Y11718001D02*
X5169999Y10961999D01*
X5370000Y9900000D02*
X5230000Y10040000D01*
X5370000Y10929999D02*
X5370000Y10180000D01*
X4074436Y8990000D02*
X4610000Y8990000D01*
X3590000Y8180000D02*
X3590000Y8505564D01*
X4610000Y8990000D02*
X5370000Y9750000D01*
X5370000Y10180000D02*
X5230000Y10040000D01*
G04 #@! TO.N,/USB-C/C_CTX2+*
X7890000Y15250000D02*
X7890000Y14905564D01*
X7890000Y14905564D02*
X8045564Y14750000D01*
X8385564Y14750000D02*
X8580000Y14555564D01*
X8580000Y14010000D02*
X8930000Y13660000D01*
X8045564Y14750000D02*
X8385564Y14750000D01*
X7980000Y15340000D02*
X7890000Y15250000D01*
X8580000Y14555564D02*
X8580000Y14010000D01*
G04 #@! TO.N,/USB-C/CTX2+*
X8635912Y5824714D02*
X8662717Y5867376D01*
X9279358Y6015067D02*
X9290641Y5914932D01*
X11010000Y7145564D02*
X11011881Y7162254D01*
X11017428Y7178106D02*
X11026363Y7192326D01*
X8360000Y11908002D02*
X8360000Y12350000D01*
X8060000Y6590000D02*
X8060000Y6015564D01*
X9110067Y6184358D02*
X9157623Y6167717D01*
X11010000Y6695564D02*
X11010000Y7145564D01*
X8834436Y9080000D02*
X8370000Y9544436D01*
X11117542Y6613137D02*
X11101690Y6618684D01*
X8370000Y10929999D02*
X8201999Y10929999D01*
X9290641Y5914932D02*
X9307282Y5867376D01*
X11068311Y7218684D02*
X11101690Y7222445D01*
X11011881Y6678875D02*
X11010000Y6695564D01*
X11158120Y7278875D02*
X11160000Y7295564D01*
X9157623Y6167717D02*
X9200285Y6140912D01*
X8244712Y10025288D02*
X8230000Y10040000D01*
X8370000Y9544436D02*
X8370000Y9900000D01*
X11160000Y7295564D02*
X11160000Y8464436D01*
X10544436Y9080000D02*
X8834436Y9080000D01*
X11143638Y7248803D02*
X11152573Y7263023D01*
X11038239Y7204202D02*
X11052459Y7213137D01*
X11038239Y6636927D02*
X11026363Y6648803D01*
X11152573Y6578106D02*
X11143638Y6592326D01*
X11052459Y7213137D02*
X11068311Y7218684D01*
X8707282Y6062623D02*
X8734087Y6105285D01*
X11131762Y6604202D02*
X11117542Y6613137D01*
X8769714Y6140912D02*
X8812376Y6167717D01*
X9262717Y6062623D02*
X9279358Y6015067D01*
X11052459Y6627992D02*
X11038239Y6636927D01*
X8169999Y11718001D02*
X8360000Y11908002D01*
X9459932Y5745641D02*
X9510000Y5740000D01*
X10354436Y5740000D02*
X11160000Y6545564D01*
X8910000Y6190000D02*
X9060000Y6190000D01*
X9334087Y5824714D02*
X9369714Y5789087D01*
X9200285Y6140912D02*
X9235912Y6105285D01*
X8460000Y5740000D02*
X8510067Y5745641D01*
X8557623Y5762282D02*
X8600285Y5789087D01*
X9510000Y5740000D02*
X10354436Y5740000D01*
X8510067Y5745641D02*
X8557623Y5762282D01*
X8230000Y10040000D02*
X8370000Y10180000D01*
X11101690Y6618684D02*
X11068311Y6622445D01*
X8690641Y6015067D02*
X8707282Y6062623D01*
X11026363Y6648803D02*
X11017428Y6663023D01*
X11131762Y7236927D02*
X11143638Y7248803D01*
X8201999Y10929999D02*
X8169999Y10961999D01*
X11068311Y6622445D02*
X11052459Y6627992D01*
X11160000Y8464436D02*
X10544436Y9080000D01*
X11026363Y7192326D02*
X11038239Y7204202D01*
X9060000Y6190000D02*
X9110067Y6184358D01*
X11158120Y6562254D02*
X11152573Y6578106D01*
X8812376Y6167717D02*
X8859932Y6184358D01*
X11160000Y6545564D02*
X11158120Y6562254D01*
X8662717Y5867376D02*
X8679358Y5914932D01*
X8200000Y6730000D02*
X8060000Y6590000D01*
X8370000Y9900000D02*
X8244712Y10025288D01*
X8169999Y10961999D02*
X8169999Y11718001D01*
X11143638Y6592326D02*
X11131762Y6604202D01*
X8600285Y5789087D02*
X8635912Y5824714D01*
X9369714Y5789087D02*
X9412376Y5762282D01*
X8679358Y5914932D02*
X8690641Y6015067D01*
X11017428Y6663023D02*
X11011881Y6678875D01*
X8370000Y10180000D02*
X8370000Y10929999D01*
X9235912Y6105285D02*
X9262717Y6062623D01*
X8859932Y6184358D02*
X8910000Y6190000D01*
X11152573Y7263023D02*
X11158120Y7278875D01*
X8335564Y5740000D02*
X8460000Y5740000D01*
X11117542Y7227992D02*
X11131762Y7236927D01*
X8060000Y6015564D02*
X8335564Y5740000D01*
X11101690Y7222445D02*
X11117542Y7227992D01*
X9412376Y5762282D02*
X9459932Y5745641D01*
X9307282Y5867376D02*
X9334087Y5824714D01*
X8734087Y6105285D02*
X8769714Y6140912D01*
X11011881Y7162254D02*
X11017428Y7178106D01*
X8360000Y12350000D02*
X8010000Y12700000D01*
G04 #@! TO.N,/USB-C/C_USB3_TX-*
X18315000Y15550000D02*
X18667500Y15902500D01*
X8365564Y21660000D02*
X7740000Y21034436D01*
X7490000Y17830000D02*
X7580000Y17740000D01*
X18667500Y15902500D02*
X18667500Y16502500D01*
X7740000Y18491111D02*
X7490000Y18241111D01*
X9105000Y21660000D02*
X8365564Y21660000D01*
X7740000Y21034436D02*
X7740000Y18491111D01*
X9270000Y21495000D02*
X9105000Y21660000D01*
X7490000Y18241111D02*
X7490000Y17830000D01*
X18667500Y16502500D02*
X18500000Y16670000D01*
D79*
G04 #@! TO.N,Net-(C15-Pad2)*
X11280000Y13080000D02*
X11095001Y12895001D01*
X11732500Y13080000D02*
X11280000Y13080000D01*
X11095001Y12019999D02*
X10910003Y11835001D01*
D73*
X9810000Y11300000D02*
X9870000Y11360000D01*
D79*
X11095001Y12895001D02*
X11095001Y12019999D01*
X10910003Y11835001D02*
X10345001Y11835001D01*
X10345001Y11835001D02*
X9870000Y11360000D01*
D73*
X9810000Y10490000D02*
X9810000Y11300000D01*
G04 #@! TO.N,Net-(C16-Pad2)*
X15607500Y13580000D02*
X16310000Y13580000D01*
X16310000Y13580000D02*
X16740000Y14010000D01*
D79*
G04 #@! TO.N,Net-(C19-Pad2)*
X18770000Y11200000D02*
X19700000Y11200000D01*
X19795000Y11255000D02*
X19720000Y11180000D01*
X20812500Y11255000D02*
X19795000Y11255000D01*
X19700000Y11200000D02*
X19720000Y11180000D01*
D77*
G04 #@! TO.N,/USB-C/C_USB3_TX+*
X7520000Y18582239D02*
X7270000Y18332239D01*
X8274436Y21880000D02*
X7520000Y21125564D01*
X19240000Y15550000D02*
X18887500Y15902500D01*
X7270000Y17830000D02*
X7180000Y17740000D01*
X7270000Y18332239D02*
X7270000Y17830000D01*
X18887500Y16507497D02*
X19050003Y16670000D01*
X18887500Y15902500D02*
X18887500Y16507497D01*
X9270000Y22045000D02*
X9105000Y21880000D01*
X7520000Y21125564D02*
X7520000Y18582239D01*
X9105000Y21880000D02*
X8274436Y21880000D01*
D73*
G04 #@! TO.N,/SD/~SD_MUX_SEL*
X27550000Y18730000D02*
X28460000Y18730000D01*
D74*
X23390000Y16720000D02*
X23969980Y17299980D01*
X25750000Y18120000D02*
X26460000Y18830000D01*
D79*
X23374990Y16735010D02*
X20752988Y16735010D01*
D73*
X4045000Y19510000D02*
X4025000Y19530000D01*
D74*
X26560000Y18730000D02*
X26460000Y18830000D01*
X23969980Y17299980D02*
X25069981Y17299981D01*
X25069981Y17299981D02*
X25570000Y17800000D01*
D79*
X23390000Y16720000D02*
X23374990Y16735010D01*
X29190000Y17170000D02*
X29190000Y17254278D01*
X20752988Y16735010D02*
X19960000Y17527998D01*
D73*
X28460000Y18730000D02*
X29050000Y18730000D01*
X1035000Y17725000D02*
X1070000Y17690000D01*
D79*
X29190000Y17254278D02*
X28460000Y17984278D01*
X28460000Y17984278D02*
X28460000Y18730000D01*
D74*
X25570000Y18120000D02*
X25750000Y18120000D01*
D73*
X1035000Y18430000D02*
X1035000Y17725000D01*
D74*
X25570000Y17800000D02*
X25570000Y18120000D01*
D73*
X4650000Y19510000D02*
X4045000Y19510000D01*
D74*
X27550000Y18730000D02*
X26560000Y18730000D01*
D79*
X19960000Y17527998D02*
X19960000Y18420000D01*
D77*
G04 #@! TO.N,/USB-C/C_USB3_RX+*
X6290000Y20500000D02*
X6290000Y17830000D01*
X6630000Y20840000D02*
X6290000Y20500000D01*
X6290000Y17830000D02*
X6380000Y17740000D01*
D79*
G04 #@! TO.N,/FTDI/FT_EXT_CBUS1_R*
X15100000Y5120000D02*
X15100000Y5895000D01*
X13630000Y6070000D02*
X13410000Y6290000D01*
X15100000Y5895000D02*
X14925000Y6070000D01*
X13410000Y6290000D02*
X13410000Y7240000D01*
X14925000Y6070000D02*
X13630000Y6070000D01*
D77*
G04 #@! TO.N,/GL_USB3_TX+*
X18667500Y14237500D02*
X18315000Y14590000D01*
X20672500Y13395000D02*
X19069436Y13395000D01*
X20812500Y13255000D02*
X20672500Y13395000D01*
X18667500Y13796936D02*
X18667500Y14237500D01*
X19069436Y13395000D02*
X18667500Y13796936D01*
D79*
G04 #@! TO.N,/FTDI/FT_EXT_CBUS0_R*
X14050000Y6320000D02*
X13910000Y6460000D01*
X15675000Y6320000D02*
X14050000Y6320000D01*
X13910000Y6460000D02*
X13910000Y7240000D01*
X16100000Y5895000D02*
X15675000Y6320000D01*
X16100000Y5120000D02*
X16100000Y5895000D01*
D77*
G04 #@! TO.N,/GL_USB3_RX+*
X8053497Y22328485D02*
X8087401Y22362389D01*
X8348228Y22710000D02*
X9844436Y22710000D01*
X7367644Y22704632D02*
X7412900Y22688797D01*
X20812500Y11755000D02*
X20672500Y11895000D01*
X7539482Y22448242D02*
X7555317Y22402986D01*
X8300583Y22704632D02*
X8348228Y22710000D01*
X9844436Y22710000D02*
X10510000Y22044436D01*
X10510000Y22044436D02*
X10510000Y20855000D01*
X7580826Y22362389D02*
X7614730Y22328485D01*
X6290000Y22474436D02*
X6525564Y22710000D01*
X8214730Y22663288D02*
X8255327Y22688797D01*
X7967644Y22287141D02*
X8012900Y22302976D01*
X10510000Y20855000D02*
X10345000Y20690000D01*
X7453497Y22663288D02*
X7487401Y22629384D01*
X7920000Y22281772D02*
X7967644Y22287141D01*
X8255327Y22688797D02*
X8300583Y22704632D01*
X8128745Y22448242D02*
X8139482Y22543531D01*
X7512910Y22588787D02*
X7528745Y22543531D01*
X19490002Y11895000D02*
X19325001Y11729999D01*
X7555317Y22402986D02*
X7580826Y22362389D01*
X8012900Y22302976D02*
X8053497Y22328485D01*
X7748228Y22281772D02*
X7920000Y22281772D01*
X7655327Y22302976D02*
X7700583Y22287141D01*
X6290000Y22140000D02*
X6290000Y22474436D01*
X6630000Y21800000D02*
X6290000Y22140000D01*
X8087401Y22362389D02*
X8112910Y22402986D01*
X19579436Y11895000D02*
X19490002Y11895000D01*
X20672500Y11895000D02*
X19579436Y11895000D01*
X7700583Y22287141D02*
X7748228Y22281772D01*
X8112910Y22402986D02*
X8128745Y22448242D01*
X7320000Y22710000D02*
X7367644Y22704632D01*
X7412900Y22688797D02*
X7453497Y22663288D01*
X6525564Y22710000D02*
X7320000Y22710000D01*
X8139482Y22543531D02*
X8155317Y22588787D01*
X8180826Y22629384D02*
X8214730Y22663288D01*
X7487401Y22629384D02*
X7512910Y22588787D01*
X7614730Y22328485D02*
X7655327Y22302976D01*
X8155317Y22588787D02*
X8180826Y22629384D01*
X7528745Y22543531D02*
X7539482Y22448242D01*
D79*
G04 #@! TO.N,/FTDI/FT_EXT_TXD_R*
X14410000Y6770000D02*
X14410000Y7240000D01*
X17100000Y5400000D02*
X15930000Y6570000D01*
X15930000Y6570000D02*
X14610000Y6570000D01*
X14610000Y6570000D02*
X14410000Y6770000D01*
X17100000Y5120000D02*
X17100000Y5400000D01*
D77*
G04 #@! TO.N,/GL_USB3_TX-*
X20672500Y13615000D02*
X19160564Y13615000D01*
X18887500Y13888064D02*
X18887500Y14237500D01*
X18887500Y14237500D02*
X19240000Y14590000D01*
X20812500Y13755000D02*
X20672500Y13615000D01*
X19160564Y13615000D02*
X18887500Y13888064D01*
D79*
G04 #@! TO.N,/FTDI/FT_EXT_RXD_R*
X17915000Y6080000D02*
X16773566Y6080000D01*
X15330000Y6820000D02*
X14910000Y7240000D01*
X18100000Y5895000D02*
X17915000Y6080000D01*
X18100000Y5120000D02*
X18100000Y5895000D01*
X16773566Y6080000D02*
X16033558Y6820008D01*
X15826434Y6820000D02*
X15330000Y6820000D01*
X15826442Y6820008D02*
X15826434Y6820000D01*
X16033558Y6820008D02*
X15826442Y6820008D01*
D77*
G04 #@! TO.N,/GL_USB3_RX-*
X5730000Y21800000D02*
X6070000Y22140000D01*
X6434436Y22930000D02*
X9935564Y22930000D01*
X19670564Y12115000D02*
X19490001Y12115000D01*
X9935564Y22930000D02*
X10730000Y22135564D01*
X10730000Y22135564D02*
X10730000Y20855000D01*
X6070000Y22565564D02*
X6434436Y22930000D01*
X20672500Y12115000D02*
X19670564Y12115000D01*
X19490001Y12115000D02*
X19325001Y12280000D01*
X20812500Y12255000D02*
X20672500Y12115000D01*
X10730000Y20855000D02*
X10895000Y20690000D01*
X6070000Y22140000D02*
X6070000Y22565564D01*
D73*
G04 #@! TO.N,Net-(Q1-Pad4)*
X29625001Y18379999D02*
X29625001Y19024999D01*
D77*
X30110000Y17170000D02*
X29050000Y18230000D01*
D73*
X29420000Y19230000D02*
X29050000Y19230000D01*
X29625001Y19024999D02*
X29420000Y19230000D01*
D77*
X30210000Y17170000D02*
X30110000Y17170000D01*
D73*
X29050000Y18230000D02*
X29475002Y18230000D01*
X29475002Y18230000D02*
X29625001Y18379999D01*
D78*
G04 #@! TO.N,Net-(C20-Pad2)*
X19190010Y10749990D02*
X19140000Y10800000D01*
X20807490Y10749990D02*
X19190010Y10749990D01*
X19140000Y10800000D02*
X18070000Y10800000D01*
X20812500Y10755000D02*
X20807490Y10749990D01*
D74*
X16790000Y10400000D02*
X16700000Y10310000D01*
D78*
X18070000Y10800000D02*
X17670000Y10400000D01*
D74*
X17670000Y10400000D02*
X16790000Y10400000D01*
D77*
G04 #@! TO.N,Net-(Q3-Pad4)*
X28530000Y21920000D02*
X29030000Y21420000D01*
D73*
X29455002Y21420000D02*
X29030000Y21420000D01*
D77*
X26040000Y22420000D02*
X26540000Y21920000D01*
D73*
X29030000Y20420000D02*
X29455002Y20420000D01*
X29605001Y20569999D02*
X29605001Y21270001D01*
D77*
X26040000Y22740000D02*
X26040000Y22420000D01*
D73*
X29605001Y21270001D02*
X29455002Y21420000D01*
X29455002Y20420000D02*
X29605001Y20569999D01*
D77*
X26540000Y21920000D02*
X28530000Y21920000D01*
D79*
G04 #@! TO.N,/FTDI/FTDI_V_{DD}*
X15880000Y7661078D02*
X16211078Y7330000D01*
X15880000Y7798922D02*
X15880000Y7661078D01*
D74*
X22230000Y4195000D02*
X22230000Y4960000D01*
X22420000Y6270000D02*
X22420000Y5150000D01*
X23205000Y5170000D02*
X22440000Y5170000D01*
D79*
X16211078Y7330000D02*
X16400000Y7330000D01*
X15880000Y7620000D02*
X15740000Y7480000D01*
X16400000Y8130000D02*
X16211078Y8130000D01*
D74*
X22440000Y5170000D02*
X22360000Y5090000D01*
X22420000Y5150000D02*
X22360000Y5090000D01*
X22230000Y4960000D02*
X22360000Y5090000D01*
X26130000Y1680000D02*
X26170000Y1640000D01*
X26130000Y2245000D02*
X26130000Y1680000D01*
D79*
X15880000Y7661078D02*
X15880000Y7620000D01*
D74*
X27270000Y1530000D02*
X26280000Y1530000D01*
X26280000Y1530000D02*
X26170000Y1640000D01*
D79*
X16211078Y8130000D02*
X15880000Y7798922D01*
D73*
G04 #@! TO.N,/SD/SD_{MUX}_V_{DD}*
X28000000Y17720000D02*
X28020000Y17700000D01*
X18110000Y21860000D02*
X18710000Y21260000D01*
D78*
X28854999Y15000001D02*
X28850000Y15005000D01*
X28850000Y15005000D02*
X28224998Y15005000D01*
X28200000Y9809998D02*
X28200000Y12380002D01*
X28845001Y12400001D02*
X28219999Y12400001D01*
X28120000Y7555000D02*
X28200000Y7635000D01*
D76*
X20810000Y21820000D02*
X20810000Y21260000D01*
D78*
X29175000Y14680000D02*
X28854999Y15000001D01*
D73*
X28380000Y17640000D02*
X28320000Y17700000D01*
D76*
X20850000Y21220000D02*
X20380000Y21220000D01*
D78*
X28224998Y15005000D02*
X28200000Y14980002D01*
X28200000Y15029998D02*
X28200000Y16980000D01*
X28200000Y7635000D02*
X28200000Y9809998D01*
X28200000Y12380002D02*
X28219999Y12400001D01*
D73*
X27550000Y19230000D02*
X27550000Y19600000D01*
D78*
X29175000Y12730000D02*
X28845001Y12400001D01*
D73*
X18710000Y21260000D02*
X20340000Y21260000D01*
X28020000Y17700000D02*
X28320000Y17700000D01*
D76*
X20810000Y21260000D02*
X20850000Y21220000D01*
D78*
X28200000Y12380002D02*
X28200000Y14980002D01*
D73*
X27530000Y20420000D02*
X27530000Y20060000D01*
X28380000Y17160000D02*
X28380000Y17640000D01*
D76*
X20190000Y20740000D02*
X20190000Y21110000D01*
D78*
X28200000Y9809998D02*
X28199999Y9809999D01*
X28200000Y16980000D02*
X28380000Y17160000D01*
X29175000Y10130000D02*
X28854999Y9809999D01*
D73*
X27550000Y19600000D02*
X27530000Y19620000D01*
D76*
X20340000Y21260000D02*
X20340000Y21430000D01*
X20340000Y21430000D02*
X19920000Y21850000D01*
D78*
X28854999Y9809999D02*
X28199999Y9809999D01*
D76*
X20380000Y21220000D02*
X20340000Y21260000D01*
D78*
X28224998Y15005000D02*
X28200000Y15029998D01*
D76*
X20190000Y21110000D02*
X20340000Y21260000D01*
D73*
G04 #@! TO.N,Net-(C44-Pad1)*
X25510000Y20040000D02*
X25520000Y20030000D01*
X24390000Y20000000D02*
X25490000Y20000000D01*
X25490000Y20000000D02*
X25520000Y20030000D01*
X25510000Y20880000D02*
X25510000Y20040000D01*
D76*
G04 #@! TO.N,/SD/SD_V_{DD}*
X18190000Y20760000D02*
X17090000Y21860000D01*
X18190000Y20090000D02*
X17130000Y20090000D01*
X18190000Y20090000D02*
X18190000Y20760000D01*
X17130000Y20090000D02*
X17040000Y20000000D01*
D73*
G04 #@! TO.N,Net-(C47-Pad2)*
X22500000Y15150000D02*
X22490000Y15160000D01*
X20000000Y8550000D02*
X20000000Y9442500D01*
X25550000Y14870000D02*
X25480000Y14800000D01*
X25000000Y9567500D02*
X25342500Y9567500D01*
X20000000Y9442500D02*
X20104581Y9547081D01*
X22480000Y16250000D02*
X22450000Y16280000D01*
X25000000Y14442500D02*
X25122500Y14442500D01*
X20812500Y10255000D02*
X20104581Y9547081D01*
X25450000Y8360000D02*
X25450000Y9340000D01*
X25342500Y9567500D02*
X25510000Y9400000D01*
X22480000Y15720000D02*
X22480000Y16250000D01*
X22490000Y15710000D02*
X22480000Y15720000D01*
X20104581Y9547081D02*
X19325450Y9547081D01*
X25122500Y14442500D02*
X25480000Y14800000D01*
X25450000Y9340000D02*
X25510000Y9400000D01*
X25550000Y15720000D02*
X25550000Y14870000D01*
X22500000Y14442500D02*
X22500000Y15150000D01*
X21530000Y16280000D02*
X22450000Y16280000D01*
X22490000Y15160000D02*
X22490000Y15710000D01*
D79*
G04 #@! TO.N,Net-(C52-Pad2)*
X18749660Y12910000D02*
X18730928Y12928732D01*
X20657500Y12910000D02*
X18749660Y12910000D01*
D74*
X26375000Y9567500D02*
X25687500Y10255000D01*
X26375000Y8360000D02*
X26375000Y9567500D01*
D79*
X20812500Y12755000D02*
X20657500Y12910000D01*
D73*
X18730000Y12930000D02*
X18270000Y12470000D01*
G04 #@! TO.N,Net-(C56-Pad1)*
X26530000Y15350000D02*
X26010000Y14830000D01*
X26010000Y14077500D02*
X25687500Y13755000D01*
X26010000Y14830000D02*
X26010000Y14077500D01*
X26530000Y15640000D02*
X26530000Y15350000D01*
D74*
G04 #@! TO.N,Net-(D1-Pad2)*
X3025000Y20530000D02*
X2750000Y20530000D01*
X2750000Y20530000D02*
X2010000Y21270000D01*
G04 #@! TO.N,Net-(D2-Pad2)*
X3025000Y20030000D02*
X2295000Y20030000D01*
X2295000Y20030000D02*
X2005000Y20320000D01*
G04 #@! TO.N,Net-(D3-Pad2)*
X3025000Y19030000D02*
X2605000Y19030000D01*
X2605000Y19030000D02*
X2005000Y18430000D01*
G04 #@! TO.N,Net-(R1-Pad1)*
X13320000Y17310000D02*
X13320000Y18150000D01*
X13420000Y15267500D02*
X13420000Y17210000D01*
X13420000Y17210000D02*
X13320000Y17310000D01*
X13320000Y18150000D02*
X13210000Y18260000D01*
G04 #@! TO.N,Net-(D4-Pad2)*
X2165000Y19530000D02*
X2005000Y19370000D01*
X3025000Y19530000D02*
X2165000Y19530000D01*
D75*
G04 #@! TO.N,/USB-C/V_{BUS}*
X820000Y9660000D02*
X1160000Y10000000D01*
D73*
X4450000Y7690000D02*
X4700000Y7440000D01*
X4700000Y5600000D02*
X4700000Y3910000D01*
X4700000Y7440000D02*
X4700000Y6730000D01*
X7200000Y6730000D02*
X7200000Y6380000D01*
X7450000Y8040000D02*
X7450000Y7690000D01*
X7450000Y7690000D02*
X7200000Y7440000D01*
X4700000Y3910000D02*
X4680000Y3890000D01*
X4450000Y8040000D02*
X4450000Y7690000D01*
X7200000Y6380000D02*
X7260000Y6320000D01*
X7200000Y7440000D02*
X7200000Y6730000D01*
X7260000Y3980000D02*
X7360000Y3880000D01*
X4700000Y5600000D02*
X4700000Y6730000D01*
D75*
X800000Y9660000D02*
X820000Y9660000D01*
X1945000Y10000000D02*
X1990000Y9955000D01*
X1160000Y10000000D02*
X1945000Y10000000D01*
D73*
X7260000Y6320000D02*
X7260000Y3980000D01*
D77*
G04 #@! TO.N,/USB-C/CRX1+*
X4090000Y11918002D02*
X4090000Y12140000D01*
X2877959Y5922726D02*
X2849518Y5904855D01*
X838825Y7026473D02*
X830908Y7034390D01*
X3590912Y5922726D02*
X3567161Y5946477D01*
X4360203Y12909781D02*
X4320374Y12923718D01*
X909091Y6434390D02*
X915048Y6443870D01*
X1918874Y8988120D02*
X1935564Y8990000D01*
X2849518Y5904855D02*
X2817814Y5893761D01*
X3501710Y6133524D02*
X3477959Y6157275D01*
X1267991Y8882459D02*
X1276926Y8868239D01*
X1858683Y8898311D02*
X1862444Y8931690D01*
X4236509Y12933167D02*
X4196680Y12947104D01*
X3084436Y6190000D02*
X3051057Y6186240D01*
X3384436Y6190000D02*
X3084436Y6190000D01*
X3840000Y6045564D02*
X3684436Y5890000D01*
X1185564Y8990000D02*
X1202253Y8988120D01*
X920000Y6465564D02*
X920000Y6965564D01*
X821253Y7054438D02*
X820000Y7065564D01*
X4196680Y12309781D02*
X4236509Y12323718D01*
X909091Y6996739D02*
X901174Y7004656D01*
X1832325Y8856363D02*
X1844201Y8868239D01*
X4196680Y12947104D02*
X4160950Y12969555D01*
X4290001Y11718001D02*
X4090000Y11918002D01*
X1853136Y8882459D02*
X1858683Y8898311D01*
X4236509Y12323718D02*
X4320374Y12333167D01*
X1253136Y8947542D02*
X1258683Y8931690D01*
X3619353Y5904855D02*
X3590912Y5922726D01*
X4094724Y13074952D02*
X4090000Y13116884D01*
X901174Y7004656D02*
X891694Y7010613D01*
X891694Y6420516D02*
X901174Y6426473D01*
X5490000Y15830000D02*
X5580000Y15740000D01*
X1218105Y8982573D02*
X1232325Y8973638D01*
X920000Y6965564D02*
X918746Y6976691D01*
X4360203Y12347104D02*
X4395933Y12369555D01*
X2784436Y5890000D02*
X1295564Y5890000D01*
X1862444Y8931690D02*
X1867991Y8947542D01*
X4131112Y12999393D02*
X4108661Y13035123D01*
X1262444Y8898311D02*
X1267991Y8882459D01*
X824951Y6387259D02*
X830908Y6396739D01*
X2967161Y6133524D02*
X2949290Y6105083D01*
X2930675Y6006622D02*
X2919581Y5974918D01*
X3519581Y6105083D02*
X3501710Y6133524D01*
X820000Y7065564D02*
X820000Y8624436D01*
X838825Y6404656D02*
X848305Y6410613D01*
X915048Y6443870D02*
X918746Y6454438D01*
X2949290Y6105083D02*
X2938196Y6073379D01*
X1202253Y8988120D02*
X1218105Y8982573D01*
X4094724Y12181933D02*
X4108661Y12221762D01*
X918746Y6976691D02*
X915048Y6987259D01*
X4258001Y10929999D02*
X4290001Y10961999D01*
X881126Y7014311D02*
X858873Y7016818D01*
X3449518Y6175146D02*
X3417814Y6186240D01*
X4395933Y12887330D02*
X4360203Y12909781D01*
X1244201Y8961762D02*
X1253136Y8947542D01*
X1802253Y8841881D02*
X1818105Y8847428D01*
X4448222Y12821762D02*
X4425771Y12857492D01*
X1295564Y5890000D02*
X820000Y6365564D01*
X830908Y7034390D02*
X824951Y7043870D01*
X3019353Y6175146D02*
X2990912Y6157275D01*
X4448222Y12435123D02*
X4462159Y12474952D01*
X4090000Y12140000D02*
X4094724Y12181933D01*
X1935564Y8990000D02*
X3695564Y8990000D01*
X4090000Y14764436D02*
X5155564Y15830000D01*
X3538196Y6006622D02*
X3530675Y6073379D01*
X4196065Y10006065D02*
X4230000Y10040000D01*
X4160950Y12969555D02*
X4131112Y12999393D01*
X1903022Y8982573D02*
X1918874Y8988120D01*
X4320374Y12333167D02*
X4360203Y12347104D01*
X4466884Y12740000D02*
X4462159Y12781933D01*
X915048Y6987259D02*
X909091Y6996739D01*
X4108661Y13035123D02*
X4094724Y13074952D01*
X4160950Y12287330D02*
X4196680Y12309781D01*
X2990912Y6157275D02*
X2967161Y6133524D01*
X3700000Y6730000D02*
X3840000Y6590000D01*
X3051057Y6186240D02*
X3019353Y6175146D01*
X1844201Y8868239D02*
X1853136Y8882459D01*
X3417814Y6186240D02*
X3384436Y6190000D01*
X4395933Y12369555D02*
X4425771Y12399393D01*
X4462159Y12781933D02*
X4448222Y12821762D01*
X2901710Y5946477D02*
X2877959Y5922726D01*
X3530675Y6073379D02*
X3519581Y6105083D01*
X1876926Y8961762D02*
X1888802Y8973638D01*
X881126Y6416818D02*
X891694Y6420516D01*
X830908Y6396739D02*
X838825Y6404656D01*
X1818105Y8847428D02*
X1832325Y8856363D01*
X5155564Y15830000D02*
X5490000Y15830000D01*
X1888802Y8973638D02*
X1903022Y8982573D01*
X4090000Y9900000D02*
X4196065Y10006065D01*
X858873Y7016818D02*
X848305Y7020516D01*
X1288802Y8856363D02*
X1303022Y8847428D01*
X2938196Y6073379D02*
X2930675Y6006622D01*
X3567161Y5946477D02*
X3549290Y5974918D01*
X4466884Y12516884D02*
X4466884Y12740000D01*
X4230000Y10040000D02*
X4090000Y10180000D01*
X820000Y8624436D02*
X1185564Y8990000D01*
X891694Y7010613D02*
X881126Y7014311D01*
X821253Y6376691D02*
X824951Y6387259D01*
X4090000Y9384436D02*
X4090000Y9900000D01*
X824951Y7043870D02*
X821253Y7054438D01*
X4090000Y10180000D02*
X4090000Y10929999D01*
X3684436Y5890000D02*
X3651057Y5893761D01*
X4320374Y12923718D02*
X4236509Y12933167D01*
X820000Y6365564D02*
X821253Y6376691D01*
X1785564Y8840000D02*
X1802253Y8841881D01*
X1318874Y8841881D02*
X1335564Y8840000D01*
X3695564Y8990000D02*
X4090000Y9384436D01*
X4131112Y12257492D02*
X4160950Y12287330D01*
X4290001Y10961999D02*
X4290001Y11718001D01*
X3651057Y5893761D02*
X3619353Y5904855D01*
X1258683Y8931690D02*
X1262444Y8898311D01*
X1232325Y8973638D02*
X1244201Y8961762D01*
X901174Y6426473D02*
X909091Y6434390D01*
X858873Y6414311D02*
X881126Y6416818D01*
X4090000Y13116884D02*
X4090000Y14764436D01*
X848305Y7020516D02*
X838825Y7026473D01*
X4425771Y12399393D02*
X4448222Y12435123D01*
X2817814Y5893761D02*
X2784436Y5890000D01*
X848305Y6410613D02*
X858873Y6414311D01*
X4108661Y12221762D02*
X4131112Y12257492D01*
X1303022Y8847428D02*
X1318874Y8841881D01*
X4425771Y12857492D02*
X4395933Y12887330D01*
X2919581Y5974918D02*
X2901710Y5946477D01*
X3477959Y6157275D02*
X3449518Y6175146D01*
X4462159Y12474952D02*
X4466884Y12516884D01*
X1335564Y8840000D02*
X1785564Y8840000D01*
X3549290Y5974918D02*
X3538196Y6006622D01*
X1276926Y8868239D02*
X1288802Y8856363D01*
X1867991Y8947542D02*
X1876926Y8961762D01*
X3840000Y6590000D02*
X3840000Y6045564D01*
X4090000Y10929999D02*
X4258001Y10929999D01*
X918746Y6454438D02*
X920000Y6465564D01*
G04 #@! TO.N,/USB-C/CRX1-*
X600000Y6274436D02*
X600000Y8715564D01*
X5490000Y16050000D02*
X5064436Y16050000D01*
X3730000Y10040000D02*
X3870000Y10180000D01*
X3604436Y9210000D02*
X3870000Y9475564D01*
X600000Y8715564D02*
X1094436Y9210000D01*
X3870000Y14855564D02*
X3870000Y11918002D01*
X1204436Y5670000D02*
X600000Y6274436D01*
X4060000Y5954436D02*
X3775564Y5670000D01*
X3669999Y10961999D02*
X3669999Y11718001D01*
X4200000Y6730000D02*
X4060000Y6590000D01*
X1094436Y9210000D02*
X3604436Y9210000D01*
X3701999Y10929999D02*
X3669999Y10961999D01*
X3870000Y9475564D02*
X3870000Y9900000D01*
X3870000Y9900000D02*
X3730000Y10040000D01*
X4060000Y6590000D02*
X4060000Y5954436D01*
X3870000Y10929999D02*
X3701999Y10929999D01*
X3775564Y5670000D02*
X1204436Y5670000D01*
X5580000Y16140000D02*
X5490000Y16050000D01*
X5064436Y16050000D02*
X3870000Y14855564D01*
X3870000Y11918002D02*
X3669999Y11718001D01*
X3870000Y10180000D02*
X3870000Y10929999D01*
G04 #@! TO.N,/UFP_USB2_D+*
X6060000Y6590000D02*
X6060000Y5945000D01*
X6200000Y6730000D02*
X6060000Y6590000D01*
X6060000Y5945000D02*
X6225000Y5780000D01*
X4730000Y9660000D02*
X4520000Y9450000D01*
X5840000Y8736419D02*
X5675000Y8901419D01*
X10665000Y14220000D02*
X10500000Y14055000D01*
X11592500Y14220000D02*
X10665000Y14220000D01*
X5840000Y8430000D02*
X5840000Y8736419D01*
X5450000Y8040000D02*
X5840000Y8430000D01*
X4730000Y10040000D02*
X4730000Y9660000D01*
X11732500Y14080000D02*
X11592500Y14220000D01*
G04 #@! TO.N,/UFP_USB2_D-*
X5840000Y5945000D02*
X5675000Y5780000D01*
X6450000Y8040000D02*
X6060000Y8430000D01*
X6060000Y8430000D02*
X6060000Y8736419D01*
X5700000Y6730000D02*
X5840000Y6590000D01*
X10665000Y14440000D02*
X10500000Y14605000D01*
X11732500Y14580000D02*
X11592500Y14440000D01*
X5840000Y6590000D02*
X5840000Y5945000D01*
X4730000Y11920000D02*
X4660000Y11990000D01*
X11592500Y14440000D02*
X10665000Y14440000D01*
X4730000Y11340000D02*
X4730000Y11920000D01*
X6060000Y8736419D02*
X6225000Y8901419D01*
D74*
G04 #@! TO.N,/USB-C/CC2*
X7690000Y11380000D02*
X7730000Y11340000D01*
X9650000Y18530000D02*
X9650000Y19131208D01*
X6700000Y6730000D02*
X6700000Y6010000D01*
X7690000Y11960000D02*
X7690000Y11380000D01*
X9650000Y19131208D02*
X9576208Y19205000D01*
X9580000Y18460000D02*
X9650000Y18530000D01*
X6700000Y6010000D02*
X6800000Y5910000D01*
X9580000Y17740000D02*
X9580000Y18460000D01*
D77*
G04 #@! TO.N,/USB-C/CRX2+*
X7230000Y10040000D02*
X7090000Y10180000D01*
X7090000Y9900000D02*
X7230000Y10040000D01*
X7090000Y9715564D02*
X7090000Y9900000D01*
X7090000Y10180000D02*
X7090000Y10761998D01*
X8450000Y8040000D02*
X8310000Y8180000D01*
X7090000Y11918002D02*
X7290001Y11718001D01*
X7090000Y10761998D02*
X7290001Y10961999D01*
X7290001Y10961999D02*
X7290001Y11718001D01*
X7090000Y15250000D02*
X7090000Y11918002D01*
X8310000Y8495564D02*
X7090000Y9715564D01*
X7180000Y15340000D02*
X7090000Y15250000D01*
X8310000Y8180000D02*
X8310000Y8495564D01*
G04 #@! TO.N,/USB-C/CRX2-*
X6870000Y10761998D02*
X6669999Y10961999D01*
X7950000Y8040000D02*
X8090000Y8180000D01*
X6870000Y9624436D02*
X6870000Y9900000D01*
X8090000Y8180000D02*
X8090000Y8404436D01*
X8090000Y8404436D02*
X6870000Y9624436D01*
X6780000Y15340000D02*
X6870000Y15250000D01*
X6870000Y10180000D02*
X6870000Y10761998D01*
X6669999Y10961999D02*
X6669999Y11718001D01*
X6870000Y9900000D02*
X6730000Y10040000D01*
X6870000Y11918002D02*
X6669999Y11718001D01*
X6730000Y10040000D02*
X6870000Y10180000D01*
X6870000Y15250000D02*
X6870000Y11918002D01*
D78*
G04 #@! TO.N,/USB-C/CC1*
X6020000Y9430000D02*
X6125000Y9535000D01*
D74*
X9180000Y17740000D02*
X9180000Y18740000D01*
D78*
X6125000Y9535000D02*
X6230000Y9640000D01*
D74*
X9180000Y18740000D02*
X9220000Y18780000D01*
D78*
X5658139Y9430000D02*
X6020000Y9430000D01*
X6230000Y9640000D02*
X6230000Y10040000D01*
X4950000Y8040000D02*
X4950000Y8721861D01*
D74*
X6125000Y9535000D02*
X6055000Y9465000D01*
D78*
X4950000Y8721861D02*
X5658139Y9430000D01*
D79*
G04 #@! TO.N,/FTDI/FT_EXT_CBUS1*
X18200000Y8730000D02*
X18200000Y8918922D01*
X17388912Y9730010D02*
X14598959Y9730010D01*
X14598959Y9730010D02*
X13410000Y8541051D01*
X13410000Y8541051D02*
X13410000Y8240000D01*
X18200000Y8918922D02*
X17388912Y9730010D01*
G04 #@! TO.N,/FTDI/FT_EXT_CBUS0*
X14702516Y9480000D02*
X13910000Y8687484D01*
X13910000Y8687484D02*
X13910000Y8240000D01*
X17800000Y8918922D02*
X17238922Y9480000D01*
X17800000Y8730000D02*
X17800000Y8918922D01*
X17238922Y9480000D02*
X14702516Y9480000D01*
G04 #@! TO.N,/FTDI/FT_EXT_RXD*
X16924990Y8805010D02*
X15475010Y8805010D01*
X17000000Y8730000D02*
X16924990Y8805010D01*
X15475010Y8805010D02*
X14910000Y8240000D01*
G04 #@! TO.N,/FTDI/FT_EXT_TXD*
X14410000Y8437502D02*
X14410000Y8240000D01*
X17400000Y8918922D02*
X17088922Y9230000D01*
X15202498Y9230000D02*
X14410000Y8437502D01*
X17400000Y8730000D02*
X17400000Y8918922D01*
X17088922Y9230000D02*
X15202498Y9230000D01*
G04 #@! TO.N,/FTDI/FTDI_EXT_V_{DD}*
X15870000Y8530000D02*
X16400000Y8530000D01*
X12870000Y6850000D02*
X12920000Y6800000D01*
X15320000Y7760000D02*
X15650000Y8090000D01*
X15650000Y8090000D02*
X15650000Y8310000D01*
X12920000Y6300000D02*
X12920000Y6800000D01*
X13130000Y7760000D02*
X15320000Y7760000D01*
X12920000Y7550000D02*
X13130000Y7760000D01*
X15650000Y8310000D02*
X15870000Y8530000D01*
X14100000Y5120000D02*
X12920000Y6300000D01*
X12350000Y6850000D02*
X12870000Y6850000D01*
X12920000Y6800000D02*
X12920000Y7550000D01*
G04 #@! TO.N,/SD/SD_DAT2*
X30276647Y15330000D02*
X30351647Y15255000D01*
X29825000Y15330000D02*
X30276647Y15330000D01*
G04 #@! TO.N,/SD/SD_DAT3*
X30276647Y14030000D02*
X30351647Y13955000D01*
X29825000Y14030000D02*
X30276647Y14030000D01*
G04 #@! TO.N,/SD/SD_CMD*
X29825000Y12730000D02*
X30270001Y12730000D01*
X30270001Y12730000D02*
X30350000Y12650001D01*
G04 #@! TO.N,/SD/SD_CLK*
X29825000Y11430000D02*
X30279999Y11430000D01*
X30279999Y11430000D02*
X30350000Y11359999D01*
G04 #@! TO.N,/SD/SD_DAT0*
X29825000Y10130000D02*
X30272730Y10130000D01*
X30272730Y10130000D02*
X30352729Y10050001D01*
G04 #@! TO.N,/SD/SD_DAT1*
X30292004Y8830000D02*
X30367004Y8755000D01*
X29825000Y8830000D02*
X30292004Y8830000D01*
D73*
G04 #@! TO.N,Net-(R3-Pad2)*
X11650000Y11997500D02*
X11732500Y12080000D01*
X11650000Y10320000D02*
X11650000Y11997500D01*
D79*
G04 #@! TO.N,/SD/EXT_DAT1*
X30250000Y9155000D02*
X42400000Y9155000D01*
X43950000Y7605000D02*
X48050000Y7605000D01*
D78*
X28850000Y9155000D02*
X30250000Y9155000D01*
X28525000Y8830000D02*
X28850000Y9155000D01*
D79*
X42400000Y9155000D02*
X43950000Y7605000D01*
G04 #@! TO.N,/SD/EXT_DAT0*
X43104999Y10450001D02*
X44850000Y8705000D01*
X44850000Y8705000D02*
X48050000Y8705000D01*
X30245001Y10450001D02*
X43104999Y10450001D01*
D78*
X28845001Y10450001D02*
X30245001Y10450001D01*
X28525000Y10130000D02*
X28845001Y10450001D01*
D79*
G04 #@! TO.N,/SD/EXT_CLK*
X44575000Y10905000D02*
X48050000Y10905000D01*
D78*
X28525000Y11430000D02*
X28854999Y11759999D01*
D79*
X30245001Y11759999D02*
X43720001Y11759999D01*
D78*
X28854999Y11759999D02*
X30245001Y11759999D01*
D79*
X43720001Y11759999D02*
X44575000Y10905000D01*
D73*
G04 #@! TO.N,/SD/EXT_V_{DD}*
X48200000Y12005000D02*
X46600000Y12005000D01*
X46600000Y12005000D02*
X46350000Y12255000D01*
X48200000Y12005000D02*
X46550000Y12005000D01*
X46550000Y12005000D02*
X46350000Y11805000D01*
X27530000Y21420000D02*
X28220000Y21420000D01*
X28220000Y21420000D02*
X28230000Y21430000D01*
D78*
G04 #@! TO.N,/SD/EXT_CMD*
X28525000Y12730000D02*
X28845001Y13050001D01*
D79*
X30245001Y13050001D02*
X47995001Y13050001D01*
D78*
X28845001Y13050001D02*
X30245001Y13050001D01*
D79*
X47995001Y13050001D02*
X48050000Y13105000D01*
G04 #@! TO.N,/SD/EXT_DAT3*
X47895001Y14359999D02*
X48050000Y14205000D01*
D78*
X28525000Y14030000D02*
X28854999Y14359999D01*
X28859998Y14355000D02*
X30250000Y14355000D01*
X28854999Y14359999D02*
X28859998Y14355000D01*
D79*
X30250000Y14355000D02*
X47900000Y14355000D01*
X47900000Y14355000D02*
X48050000Y14205000D01*
G04 #@! TO.N,/SD/EXT_DAT2*
X30250000Y15655000D02*
X47700000Y15655000D01*
X47704999Y15650001D02*
X48050000Y15305000D01*
X47700000Y15655000D02*
X48050000Y15305000D01*
D78*
X28525000Y15330000D02*
X28850000Y15655000D01*
X28850000Y15655000D02*
X30250000Y15655000D01*
D73*
G04 #@! TO.N,/SD/GL_V_{DD}*
X26000000Y17350000D02*
X26460000Y17810000D01*
X27550000Y18230000D02*
X26880000Y18230000D01*
X24630000Y15720000D02*
X24630000Y15210000D01*
X26880000Y18230000D02*
X26460000Y17810000D01*
X24500000Y14442500D02*
X24500000Y15080000D01*
X24630000Y15210000D02*
X24570000Y15150000D01*
X24500000Y15080000D02*
X24570000Y15150000D01*
X26000000Y17300000D02*
X26000000Y17350000D01*
D77*
G04 #@! TO.N,/FTDI/FT_CBUS2*
X18800000Y7730000D02*
X18900000Y7830000D01*
X24467153Y6445001D02*
X25234999Y6445001D01*
X24132154Y6780000D02*
X24467153Y6445001D01*
D74*
X25155000Y5170000D02*
X25155000Y6195000D01*
D77*
X18900000Y7830000D02*
X19795720Y7830000D01*
X21009990Y7122804D02*
X21352794Y6780000D01*
X21009990Y7150010D02*
X21009990Y7122804D01*
X20355710Y7270010D02*
X20889990Y7270010D01*
X21352794Y6780000D02*
X24132154Y6780000D01*
X25234999Y6445001D02*
X25320000Y6360000D01*
X19795720Y7830000D02*
X20355710Y7270010D01*
X20889990Y7270010D02*
X21009990Y7150010D01*
D74*
X25155000Y6195000D02*
X25320000Y6360000D01*
G04 #@! TO.N,Net-(Q2-Pad1)*
X20820000Y18140000D02*
X20820000Y18910000D01*
X20820000Y18910000D02*
X21370000Y19460000D01*
X20190000Y19440000D02*
X21350000Y19440000D01*
X21350000Y19440000D02*
X21370000Y19460000D01*
D79*
G04 #@! TO.N,/SD_MUX_SEL*
X23380000Y17810000D02*
X23710000Y18140000D01*
D73*
X24660000Y22103214D02*
X24263214Y22500000D01*
X24190000Y21610000D02*
X24373214Y21610000D01*
X23740000Y19806786D02*
X23740000Y21160000D01*
D79*
X23855000Y845000D02*
X23679990Y669990D01*
D74*
X24823766Y17599990D02*
X25099990Y17876214D01*
D79*
X23010010Y669990D02*
X22650000Y1030000D01*
D74*
X23710000Y18140000D02*
X24250010Y17599990D01*
X29175000Y15980000D02*
X29175000Y16515000D01*
X26180000Y19670000D02*
X25520000Y19010000D01*
D73*
X24196786Y19350000D02*
X23740000Y19806786D01*
D74*
X26450000Y19670000D02*
X26180000Y19670000D01*
D73*
X24390000Y19350000D02*
X24196786Y19350000D01*
D74*
X25180000Y19350000D02*
X25520000Y19010000D01*
D79*
X23380000Y17520000D02*
X23380000Y17810000D01*
X23679990Y669990D02*
X23010010Y669990D01*
D73*
X24263214Y22500000D02*
X24070000Y22500000D01*
X23740000Y21160000D02*
X24190000Y21610000D01*
D74*
X25099990Y17876214D02*
X25099990Y18589990D01*
D79*
X29175000Y8830000D02*
X29175000Y8335000D01*
X29175000Y8335000D02*
X29160000Y8320000D01*
D74*
X24250010Y17599990D02*
X24823766Y17599990D01*
D73*
X24660000Y21896786D02*
X24660000Y22103214D01*
D79*
X23855000Y1270000D02*
X23855000Y845000D01*
D73*
X24373214Y21610000D02*
X24660000Y21896786D01*
D74*
X24390000Y19350000D02*
X25180000Y19350000D01*
X25099990Y18589990D02*
X25520000Y19010000D01*
X29175000Y16515000D02*
X29170000Y16520000D01*
D79*
G04 #@! TO.N,Net-(R4-Pad2)*
X15910000Y18300000D02*
X15350000Y17740000D01*
X15160000Y17740000D02*
X15035020Y17615020D01*
X14920000Y16778013D02*
X14920000Y15267500D01*
X15035020Y16893033D02*
X14920000Y16778013D01*
X15350000Y17740000D02*
X15160000Y17740000D01*
X15035020Y17615020D02*
X15035020Y16893033D01*
G04 #@! TO.N,Net-(R5-Pad2)*
X14785010Y18005010D02*
X15080000Y18300000D01*
X14420000Y15267500D02*
X14420000Y16631580D01*
X14785010Y16996590D02*
X14785010Y18005010D01*
X14420000Y16631580D02*
X14785010Y16996590D01*
D74*
G04 #@! TO.N,Net-(R6-Pad2)*
X7980000Y17740000D02*
X7980000Y18130000D01*
X7980000Y18130000D02*
X8560000Y18710000D01*
D79*
G04 #@! TO.N,Net-(R7-Pad2)*
X5230000Y17340000D02*
X4570000Y17010000D01*
X5580000Y17340000D02*
X5230000Y17340000D01*
D74*
G04 #@! TO.N,Net-(R8-Pad2)*
X12920000Y15267500D02*
X12920000Y16420000D01*
X12920000Y16420000D02*
X12910000Y16430000D01*
G04 #@! TO.N,Net-(R24-Pad1)*
X23600000Y19070000D02*
X24550000Y18120000D01*
X23605001Y22204001D02*
X23605001Y21795999D01*
X23600000Y21790998D02*
X23600000Y21479633D01*
X23414990Y19672163D02*
X23600000Y19487153D01*
X23600000Y19487153D02*
X23600000Y19070000D01*
X23414990Y21294623D02*
X23414990Y19672163D01*
X23600000Y21479633D02*
X23414990Y21294623D01*
X22670000Y23000000D02*
X22809002Y23000000D01*
X22809002Y23000000D02*
X23605001Y22204001D01*
X23605001Y21795999D02*
X23600000Y21790998D01*
D73*
G04 #@! TO.N,Net-(R29-Pad1)*
X22320000Y20480000D02*
X22490000Y20650000D01*
X21370000Y20480000D02*
X22320000Y20480000D01*
D79*
G04 #@! TO.N,Net-(R31-Pad2)*
X21490000Y8400000D02*
X21490000Y9557500D01*
X21490000Y9557500D02*
X21500000Y9567500D01*
D73*
G04 #@! TO.N,Net-(R39-Pad2)*
X23000000Y15310000D02*
X23390000Y15700000D01*
X23000000Y14442500D02*
X23000000Y15310000D01*
D77*
G04 #@! TO.N,/FTDI_USB2_D-*
X12920000Y10704571D02*
X12920000Y11112500D01*
X23855000Y5170000D02*
X24070000Y5385000D01*
X24070000Y5920000D02*
X24026281Y5920000D01*
X13000000Y10624571D02*
X12920000Y10704571D01*
X12920000Y11112500D02*
X12920000Y11392500D01*
X24070000Y5385000D02*
X24070000Y5920000D01*
X24026281Y5920000D02*
X23890010Y6056271D01*
X13000000Y10385698D02*
X13000000Y10624571D01*
G04 #@! TO.N,/FTDI_USB2_D+*
X13550000Y10385698D02*
X13360000Y10575698D01*
X24300000Y5920000D02*
X24440000Y6060000D01*
X13360000Y11015342D02*
X13420000Y11075342D01*
X13360000Y10575698D02*
X13360000Y11015342D01*
X24290000Y5920000D02*
X24300000Y5920000D01*
X13420000Y11075342D02*
X13420000Y11392500D01*
X24505000Y5170000D02*
X24290000Y5385000D01*
X24290000Y5385000D02*
X24290000Y5920000D01*
G04 #@! TO.N,/GL_USB2_D-*
X14060000Y10614436D02*
X14254436Y10420000D01*
X15501072Y16759982D02*
X15734418Y16759982D01*
X15734418Y16759982D02*
X16324436Y17350000D01*
X14254436Y10420000D02*
X15395000Y10420000D01*
X20505564Y15730000D02*
X20160000Y16075564D01*
X19635564Y17350000D02*
X16324436Y17350000D01*
X20160000Y16075564D02*
X20160000Y16825564D01*
X21860000Y15125564D02*
X21255564Y15730000D01*
X22000000Y14442500D02*
X21860000Y14582500D01*
X21860000Y14582500D02*
X21860000Y15125564D01*
X15395000Y10420000D02*
X15560000Y10255000D01*
X13920000Y11392500D02*
X14060000Y11252500D01*
X21255564Y15730000D02*
X20505564Y15730000D01*
X14060000Y11252500D02*
X14060000Y10614436D01*
X20160000Y16825564D02*
X19635564Y17350000D01*
G04 #@! TO.N,/GL_USB2_D+*
X16685854Y16960166D02*
X16708042Y16896757D01*
X17548807Y17122479D02*
X17615564Y17130000D01*
X14345564Y10640000D02*
X15395000Y10640000D01*
X16482320Y17122479D02*
X16545729Y17100291D01*
X14280000Y11252500D02*
X14280000Y10705564D01*
X16715564Y16830000D02*
X16715564Y16753597D01*
X17381014Y17017047D02*
X17428517Y17064550D01*
X17615564Y17130000D02*
X19544436Y17130000D01*
X17082320Y16461119D02*
X17145729Y16483307D01*
X15889982Y16371072D02*
X15889982Y16604418D01*
X16781014Y16566551D02*
X16828517Y16519048D01*
X16715564Y16753597D02*
X16723085Y16686841D01*
X21164436Y15510000D02*
X21640000Y15034436D01*
X20414436Y15510000D02*
X21164436Y15510000D01*
X15395000Y10640000D02*
X15560000Y10805000D01*
X21640000Y14582500D02*
X21500000Y14442500D01*
X16602610Y17064550D02*
X16650113Y17017047D01*
X17315564Y16830000D02*
X17323085Y16896757D01*
X17202610Y16519048D02*
X17250113Y16566551D01*
X19940000Y16734436D02*
X19940000Y15984436D01*
X16745273Y16623432D02*
X16781014Y16566551D01*
X16885398Y16483307D02*
X16948807Y16461119D01*
X17015564Y16453597D02*
X17082320Y16461119D01*
X16708042Y16896757D02*
X16715564Y16830000D01*
X21640000Y15034436D02*
X21640000Y14582500D01*
X15889982Y16604418D02*
X16415564Y17130000D01*
X17345273Y16960166D02*
X17381014Y17017047D01*
X17285854Y16623432D02*
X17308042Y16686841D01*
X17250113Y16566551D02*
X17285854Y16623432D01*
X17485398Y17100291D02*
X17548807Y17122479D01*
X16948807Y16461119D02*
X17015564Y16453597D01*
X14420000Y11392500D02*
X14280000Y11252500D01*
X17315564Y16753597D02*
X17315564Y16830000D01*
X19544436Y17130000D02*
X19940000Y16734436D01*
X16415564Y17130000D02*
X16482320Y17122479D01*
X17428517Y17064550D02*
X17485398Y17100291D01*
X19940000Y15984436D02*
X20414436Y15510000D01*
X17145729Y16483307D02*
X17202610Y16519048D01*
X16828517Y16519048D02*
X16885398Y16483307D01*
X17308042Y16686841D02*
X17315564Y16753597D01*
X17323085Y16896757D02*
X17345273Y16960166D01*
X16723085Y16686841D02*
X16745273Y16623432D01*
X14280000Y10705564D02*
X14345564Y10640000D01*
X16650113Y17017047D02*
X16685854Y16960166D01*
X16545729Y17100291D02*
X16602610Y17064550D01*
D79*
G04 #@! TO.N,/FTDI/FT_TXD*
X19384626Y6070010D02*
X19575010Y5879626D01*
X19119990Y6330010D02*
X19379990Y6070010D01*
X20739990Y4710010D02*
X20739990Y2880010D01*
X19379990Y6070010D02*
X19384626Y6070010D01*
X24079980Y419980D02*
X24505000Y845000D01*
X22160000Y1460000D02*
X22160000Y760000D01*
X19575010Y5879626D02*
X19575010Y5874990D01*
X24505000Y845000D02*
X24505000Y1270000D01*
X22500020Y419980D02*
X24079980Y419980D01*
X17400000Y6941078D02*
X18011068Y6330010D01*
X18011068Y6330010D02*
X19119990Y6330010D01*
X17400000Y7130000D02*
X17400000Y6941078D01*
X19575010Y5874990D02*
X20739990Y4710010D01*
X20739990Y2880010D02*
X22160000Y1460000D01*
X22160000Y760000D02*
X22500020Y419980D01*
G04 #@! TO.N,/FTDI/FT_CBUS0*
X17800000Y6941078D02*
X17800000Y7130000D01*
X22230000Y2245000D02*
X21805000Y2245000D01*
X20990000Y4813567D02*
X19825020Y5978546D01*
X19483548Y6320018D02*
X19223548Y6580018D01*
X19488184Y6320018D02*
X19483548Y6320018D01*
X19825020Y5978546D02*
X19825020Y5983183D01*
X18121078Y6620000D02*
X17800000Y6941078D01*
X19180000Y6620000D02*
X18121078Y6620000D01*
X21805000Y2245000D02*
X20990000Y3060000D01*
X19223548Y6580018D02*
X19219982Y6580018D01*
X19825020Y5983183D02*
X19488184Y6320018D01*
X20990000Y3060000D02*
X20990000Y4813567D01*
X19219982Y6580018D02*
X19180000Y6620000D01*
G04 #@! TO.N,/FTDI/FT_CBUS1*
X18380000Y6950000D02*
X19210000Y6950000D01*
X21250000Y3450000D02*
X21805000Y2895000D01*
X21250000Y4910000D02*
X21250000Y3450000D01*
X20075028Y6086742D02*
X20075028Y6084972D01*
X18200000Y7130000D02*
X18380000Y6950000D01*
X20075028Y6084972D02*
X21250000Y4910000D01*
X21805000Y2895000D02*
X22230000Y2895000D01*
X19210000Y6950000D02*
X19589972Y6570028D01*
X19591742Y6570027D02*
X20075028Y6086742D01*
X19589972Y6570028D02*
X19591742Y6570027D01*
G04 #@! TO.N,/FTDI/FT_RXD*
X26845000Y2895000D02*
X26850000Y2890000D01*
X17000000Y7564314D02*
X17242843Y7807157D01*
X17000000Y7230000D02*
X17000000Y7564314D01*
X26130000Y2895000D02*
X26845000Y2895000D01*
G04 #@! TO.N,/SD/GL_DAT2*
X25687500Y13255000D02*
X26125000Y13255000D01*
X27325000Y15330000D02*
X27875000Y15330000D01*
X26850000Y13980000D02*
X26850000Y14855000D01*
X26125000Y13255000D02*
X26850000Y13980000D01*
X26850000Y14855000D02*
X27325000Y15330000D01*
G04 #@! TO.N,/SD/GL_DAT3*
X26125000Y12755000D02*
X27400000Y14030000D01*
X25687500Y12755000D02*
X26125000Y12755000D01*
X27400000Y14030000D02*
X27875000Y14030000D01*
G04 #@! TO.N,/SD/GL_CMD*
X27275000Y12730000D02*
X27875000Y12730000D01*
X26800000Y12255000D02*
X27275000Y12730000D01*
X25687500Y12255000D02*
X26800000Y12255000D01*
G04 #@! TO.N,/SD/GL_CLK*
X25687500Y11755000D02*
X27000000Y11755000D01*
X27000000Y11755000D02*
X27325000Y11430000D01*
X27325000Y11430000D02*
X27875000Y11430000D01*
G04 #@! TO.N,/SD/GL_DAT0*
X25687500Y11255000D02*
X26250000Y11255000D01*
X27375000Y10130000D02*
X27875000Y10130000D01*
X26250000Y11255000D02*
X27375000Y10130000D01*
G04 #@! TO.N,/SD/GL_DAT1*
X26800000Y10080000D02*
X26800000Y9355000D01*
X26800000Y9355000D02*
X27325000Y8830000D01*
X27325000Y8830000D02*
X27875000Y8830000D01*
X26125000Y10755000D02*
X26800000Y10080000D01*
X25687500Y10755000D02*
X26125000Y10755000D01*
G04 #@! TO.N,/SD/GL_SPI_CS*
X27380000Y6310000D02*
X27380000Y3040000D01*
X23890623Y7353885D02*
X24309518Y6934990D01*
X23500000Y9567500D02*
X23500000Y8760623D01*
X23890623Y8370000D02*
X23890623Y7353885D01*
X24309518Y6934990D02*
X24910484Y6934990D01*
X27380000Y3040000D02*
X27820000Y2600000D01*
X26750000Y6940000D02*
X27380000Y6310000D01*
X24910484Y6934990D02*
X24915494Y6940000D01*
X23500000Y8760623D02*
X23890623Y8370000D01*
X24915494Y6940000D02*
X26750000Y6940000D01*
G04 #@! TO.N,/SD/GL_SPI_CK*
X23000000Y8909475D02*
X23100000Y8809475D01*
X28820000Y5500000D02*
X28820000Y5990000D01*
X28820000Y5990000D02*
X28600000Y6210000D01*
X23000000Y9567500D02*
X23000000Y8909475D01*
G04 #@! TO.N,/SD/GL_SPI_SDO*
X22500000Y9567500D02*
X22500000Y8860115D01*
D77*
X29320000Y5500000D02*
X29320000Y5800000D01*
X29320000Y5800000D02*
X29090000Y6030000D01*
D79*
X22500000Y8860115D02*
X22549999Y8810116D01*
G04 #@! TO.N,/SD/GL_SPI_SDI*
X28320000Y2224317D02*
X27987922Y1892239D01*
X28320000Y2600000D02*
X28320000Y2224317D01*
X22000000Y9567500D02*
X22000000Y8575296D01*
X22000000Y8575296D02*
X22156794Y8418502D01*
D77*
G04 #@! TO.N,Net-(Q3-Pad2)*
X25020000Y21595720D02*
X25215730Y21399990D01*
D73*
X29030000Y20920000D02*
X27530000Y20920000D01*
D77*
X25020000Y22740000D02*
X25020000Y21595720D01*
X25215730Y21399990D02*
X25740010Y21399990D01*
X25740010Y21399990D02*
X26450000Y20690000D01*
D73*
X27530000Y20920000D02*
X26680000Y20920000D01*
X26680000Y20920000D02*
X26450000Y20690000D01*
D74*
G04 #@! TO.N,Net-(RN1-Pad7)*
X4823776Y17490000D02*
X4256224Y17490000D01*
X4025000Y20030000D02*
X4759002Y20030000D01*
X5490000Y19299002D02*
X5490000Y18156224D01*
X3280010Y13240010D02*
X3230000Y13190000D01*
X4256224Y17490000D02*
X3280010Y16513786D01*
X4759002Y20030000D02*
X5490000Y19299002D01*
D79*
X24000000Y9567500D02*
X24000000Y8852625D01*
D74*
X3280010Y16513786D02*
X3280010Y13240010D01*
D79*
X24000000Y8852625D02*
X24033362Y8819263D01*
D74*
X5490000Y18156224D02*
X4823776Y17490000D01*
D78*
G04 #@! TO.N,Net-(JP1-Pad2)*
X20709862Y5970000D02*
X20780000Y5970000D01*
D79*
X18800000Y7330000D02*
X19314508Y7330000D01*
X19314508Y7330000D02*
X20674508Y5970000D01*
X20674508Y5970000D02*
X20780000Y5970000D01*
D77*
G04 #@! TO.N,/USB-C/C_USB3_RX-*
X6070000Y20500000D02*
X6070000Y17830000D01*
X5730000Y20840000D02*
X6070000Y20500000D01*
X6070000Y17830000D02*
X5980000Y17740000D01*
G04 #@! TD*
M02*
